<svg width="25" height="24" viewBox="0 0 25 24" fill="none" xmlns="http://www.w3.org/2000/svg">
<rect x="0.203125" width="24" height="24" rx="12" fill="#006830"/>
<g clip-path="url(#clip0_257_51)">
<path d="M12.2014 5.28125C12.2864 5.35537 12.3221 5.42548 12.3628 5.53003C12.3813 5.57753 12.3813 5.57753 12.4002 5.626C12.4197 5.67771 12.4197 5.67771 12.4397 5.73047C12.4533 5.76658 12.467 5.80268 12.4811 5.83988C13.0349 7.32439 13.3101 8.8536 13.3049 10.4375C13.3048 10.4737 13.3048 10.5098 13.3047 10.5471C13.3032 11.1202 13.2831 11.682 13.2014 12.25C13.1933 12.3072 13.1933 12.3072 13.1851 12.3655C13.0314 13.4294 12.7596 14.4606 12.3889 15.4688C12.3682 15.4688 12.3476 15.4688 12.3264 15.4688C11.8862 14.0741 11.5436 12.6759 11.3889 11.2188C11.3852 11.1854 11.3816 11.1521 11.3778 11.1178C11.1736 9.18292 11.3238 7.04485 12.2014 5.28125Z" fill="white"/>
<path d="M7.45367 7.625C7.60021 7.67129 7.70194 7.75727 7.815 7.85742C7.83427 7.87425 7.85353 7.89108 7.87338 7.90842C7.93163 7.95953 7.98956 8.01096 8.04742 8.0625C8.09359 8.10335 8.09359 8.10335 8.14069 8.14502C8.50504 8.47314 8.86906 8.81399 9.17181 9.20068C9.23996 9.28768 9.31147 9.37115 9.38336 9.45508C9.8583 10.0256 10.2534 10.6555 10.6049 11.308C10.6393 11.3716 10.6745 11.4346 10.7099 11.4976C11.1416 12.2755 11.4285 13.0971 11.6375 13.9581C11.7311 14.3439 11.8391 14.7223 11.9645 15.0989C11.9758 15.1336 11.9871 15.1683 11.9988 15.2041C12.0141 15.2493 12.0141 15.2493 12.0296 15.2955C12.0481 15.3779 12.0445 15.4214 12.0162 15.5C11.1506 14.8559 11.1506 14.8559 10.7866 14.5146C10.7205 14.4531 10.6535 14.3941 10.5845 14.3359C10.2899 14.0795 10.0114 13.7974 9.77045 13.49C9.72534 13.4334 9.67846 13.3782 9.63007 13.3245C9.17403 12.8153 8.79369 12.2022 8.48492 11.5938C8.47122 11.5671 8.45751 11.5404 8.44339 11.5129C7.83783 10.324 7.43618 8.968 7.45367 7.625Z" fill="white"/>
<path d="M16.9531 7.59375C17.305 9.13572 16.4355 11.2082 15.6349 12.4857C15.5761 12.5753 15.5153 12.6628 15.4531 12.75C15.4289 12.7851 15.4047 12.8202 15.3805 12.8553C15.2004 13.1147 15.0044 13.3559 14.7969 13.5938C14.778 13.6157 14.7592 13.6377 14.7397 13.6604C14.6865 13.7221 14.6325 13.783 14.5781 13.8438C14.5509 13.8742 14.5237 13.9047 14.4957 13.936C14.2753 14.1804 14.0434 14.4071 13.7969 14.625C13.7812 14.6389 13.7656 14.6528 13.7495 14.6672C13.5276 14.8634 13.295 15.0443 13.0586 15.2227C13.0174 15.2538 13.0174 15.2538 12.9755 15.2856C12.9367 15.3145 12.9367 15.3145 12.8972 15.344C12.8741 15.3613 12.851 15.3786 12.8272 15.3964C12.7656 15.4375 12.7656 15.4375 12.6719 15.4688C12.7196 15.3047 12.7698 15.142 12.8253 14.9805C12.9669 14.5639 13.082 14.1481 13.1799 13.7193C13.6341 11.7317 14.5191 9.98622 15.9141 8.48633C15.9329 8.46601 15.9517 8.4457 15.971 8.42477C16.1033 8.28399 16.2434 8.15615 16.3906 8.03125C16.409 8.01546 16.4275 7.99967 16.4464 7.98341C16.498 7.93928 16.5497 7.89539 16.6016 7.85156C16.6188 7.83694 16.636 7.82232 16.6537 7.80725C16.9059 7.59375 16.9059 7.59375 16.9531 7.59375Z" fill="white"/>
<path d="M9.97402 14.075C10.0617 14.1612 10.1475 14.2491 10.2324 14.3381C10.4514 14.5654 10.6749 14.7725 10.9219 14.9689C10.9567 14.9985 10.9913 15.0283 11.0256 15.0584C11.2379 15.2438 11.4586 15.4097 11.6911 15.5691C11.713 15.5841 11.7349 15.5992 11.7574 15.6147C11.7771 15.628 11.7968 15.6414 11.8171 15.6552C11.831 15.6659 11.845 15.6766 11.8594 15.6877C11.8594 15.698 11.8594 15.7083 11.8594 15.7189C10.1555 15.7651 8.30445 15.5011 6.76562 14.7502C6.74354 14.7395 6.72145 14.7289 6.6987 14.7179C6.01285 14.3831 5.3816 13.9218 4.95312 13.2814C4.94281 13.2505 4.9325 13.2196 4.92188 13.1877C6.45621 12.9276 8.73647 12.9651 9.97402 14.075Z" fill="white"/>
<path d="M17.856 13.0876C17.8816 13.0874 17.9072 13.0872 17.9336 13.087C18.0156 13.0865 18.0976 13.0863 18.1797 13.0862C18.2214 13.0861 18.2214 13.0861 18.264 13.0859C18.6775 13.0855 19.0781 13.1041 19.4844 13.1877C19.1446 13.8061 18.5884 14.2494 17.9844 14.594C17.9649 14.6052 17.9454 14.6164 17.9254 14.628C16.4222 15.4865 14.5353 15.7503 12.8281 15.719C12.9265 15.6134 13.0359 15.5327 13.1543 15.4514C13.4691 15.2307 13.7549 14.9786 14.0389 14.7201C14.1019 14.6632 14.1659 14.608 14.2305 14.553C14.3217 14.4745 14.4041 14.3907 14.4865 14.3031C15.281 13.4696 16.7387 13.094 17.856 13.0876Z" fill="white"/>
<path d="M10.4505 15.9132C10.9513 15.9627 11.4499 15.9889 11.9531 15.9999C11.4905 16.4882 10.7793 16.7472 10.1406 16.9061C10.1193 16.9117 10.098 16.9172 10.076 16.923C9.24771 17.1305 8.29838 17.0227 7.48438 16.8124C7.51967 16.7065 7.53435 16.6977 7.62524 16.642C7.6481 16.6279 7.67096 16.6138 7.69451 16.5993C7.71927 16.5845 7.74402 16.5698 7.76953 16.5546C7.79503 16.5393 7.82053 16.524 7.84681 16.5082C8.66868 16.0226 9.49943 15.8186 10.4505 15.9132Z" fill="white"/>
<path d="M15.1406 15.9366C15.1744 15.9439 15.1744 15.9439 15.2089 15.9513C15.8037 16.0849 16.4527 16.3542 16.9219 16.7491C16.9219 16.7697 16.9219 16.7904 16.9219 16.8116C16.8015 16.8371 16.681 16.8625 16.5605 16.8878C16.5266 16.895 16.4927 16.9022 16.4577 16.9096C16.4246 16.9165 16.3914 16.9235 16.3573 16.9306C16.327 16.937 16.2967 16.9434 16.2656 16.95C15.6795 17.0619 14.936 17.0711 14.3594 16.9054C14.3216 16.8948 14.3216 16.8948 14.283 16.884C13.7256 16.7236 13.2498 16.4848 12.7969 16.1241C12.7659 16.1035 12.735 16.0829 12.7031 16.0616C12.7031 16.041 12.7031 16.0204 12.7031 15.9991C12.7233 15.9987 12.7434 15.9982 12.7642 15.9977C13.1832 15.9874 13.5967 15.9652 14.0134 15.922C14.3963 15.8827 14.7617 15.8524 15.1406 15.9366Z" fill="white"/>
<path d="M12.3281 16.0625C12.3887 16.0957 12.3887 16.0957 12.4531 16.1562C12.6139 16.926 12.4746 17.9652 12.1719 18.6875C12.1094 18.7188 12.1094 18.7188 12.0117 18.6895C11.9821 18.6785 11.9524 18.6675 11.9219 18.6562C11.9298 18.6229 11.9377 18.5895 11.9459 18.5552C11.9817 18.4018 12.0149 18.248 12.0469 18.0938C12.0519 18.0697 12.0569 18.0457 12.062 18.0209C12.1668 17.4939 12.1996 16.9022 12.1178 16.3696C12.1094 16.25 12.1094 16.25 12.1542 16.1815C12.1748 16.1674 12.1955 16.1532 12.2168 16.1387C12.2477 16.1164 12.2477 16.1164 12.2792 16.0936C12.2953 16.0834 12.3115 16.0731 12.3281 16.0625Z" fill="white"/>
</g>
<defs>
<clipPath id="clip0_257_51">
<rect width="16" height="16" fill="white" transform="translate(4.20312 4)"/>
</clipPath>
</defs>
</svg>
