<svg width="25" height="24" viewBox="0 0 25 24" fill="none" xmlns="http://www.w3.org/2000/svg">
<rect x="0.5" width="24" height="24" rx="12" fill="#FFC313"/>
<path d="M12.4982 5.28125C12.5833 5.35537 12.6189 5.42548 12.6596 5.53003C12.6782 5.57753 12.6782 5.57753 12.6971 5.626C12.7166 5.67771 12.7166 5.67771 12.7365 5.73047C12.7502 5.76658 12.7639 5.80268 12.778 5.83988C13.3318 7.32439 13.607 8.8536 13.6018 10.4375C13.6017 10.4737 13.6017 10.5098 13.6016 10.5471C13.6001 11.1202 13.58 11.682 13.4982 12.25C13.4902 12.3072 13.4902 12.3072 13.482 12.3655C13.3282 13.4294 13.0564 14.4606 12.6857 15.4688C12.6651 15.4688 12.6445 15.4688 12.6232 15.4688C12.183 14.0741 11.8405 12.6759 11.6857 11.2188C11.6821 11.1854 11.6784 11.1521 11.6747 11.1178C11.4704 9.18292 11.6207 7.04485 12.4982 5.28125Z" fill="black"/>
<path d="M7.75055 7.625C7.89709 7.67129 7.99881 7.75727 8.11188 7.85742C8.13114 7.87425 8.1504 7.89108 8.17025 7.90842C8.2285 7.95953 8.28644 8.01096 8.3443 8.0625C8.39046 8.10335 8.39046 8.10335 8.43756 8.14502C8.80191 8.47314 9.16593 8.81399 9.46869 9.20068C9.53684 9.28768 9.60835 9.37115 9.68024 9.45508C10.1552 10.0256 10.5503 10.6555 10.9017 11.308C10.9362 11.3716 10.9714 11.4346 11.0068 11.4976C11.4385 12.2755 11.7254 13.0971 11.9344 13.9581C12.028 14.3439 12.136 14.7223 12.2613 15.0989C12.2727 15.1336 12.284 15.1683 12.2957 15.2041C12.3109 15.2493 12.3109 15.2493 12.3265 15.2955C12.345 15.3779 12.3413 15.4214 12.313 15.5C11.4475 14.8559 11.4475 14.8559 11.0834 14.5146C11.0173 14.4531 10.9504 14.3941 10.8814 14.3359C10.5867 14.0795 10.3083 13.7974 10.0673 13.49C10.0222 13.4334 9.97534 13.3782 9.92694 13.3245C9.4709 12.8153 9.09057 12.2022 8.7818 11.5938C8.76809 11.5671 8.75439 11.5404 8.74027 11.5129C8.1347 10.324 7.73306 8.968 7.75055 7.625Z" fill="black"/>
<path d="M17.25 7.59375C17.6019 9.13572 16.7324 11.2082 15.9318 12.4857C15.873 12.5753 15.8122 12.6628 15.75 12.75C15.7258 12.7851 15.7015 12.8202 15.6774 12.8553C15.4973 13.1147 15.3013 13.3559 15.0938 13.5938C15.0749 13.6157 15.056 13.6377 15.0366 13.6604C14.9834 13.7221 14.9294 13.783 14.875 13.8438C14.8478 13.8742 14.8206 13.9047 14.7926 13.936C14.5722 14.1804 14.3403 14.4071 14.0938 14.625C14.0781 14.6389 14.0625 14.6528 14.0464 14.6672C13.8245 14.8634 13.5918 15.0443 13.3555 15.2227C13.3143 15.2538 13.3143 15.2538 13.2723 15.2856C13.2336 15.3145 13.2336 15.3145 13.1941 15.344C13.171 15.3613 13.1479 15.3786 13.1241 15.3964C13.0625 15.4375 13.0625 15.4375 12.9688 15.4688C13.0164 15.3047 13.0667 15.142 13.1222 14.9805C13.2638 14.5639 13.3789 14.1481 13.4768 13.7193C13.9309 11.7317 14.816 9.98622 16.2109 8.48633C16.2297 8.46601 16.2485 8.4457 16.2679 8.42477C16.4002 8.28399 16.5402 8.15615 16.6875 8.03125C16.7059 8.01546 16.7243 7.99967 16.7433 7.98341C16.7949 7.93928 16.8466 7.89539 16.8984 7.85156C16.9156 7.83694 16.9328 7.82232 16.9506 7.80725C17.2028 7.59375 17.2028 7.59375 17.25 7.59375Z" fill="black"/>
<path d="M10.2709 14.075C10.3586 14.1612 10.4444 14.2491 10.5293 14.3381C10.7482 14.5654 10.9718 14.7725 11.2188 14.9689C11.2536 14.9985 11.2882 15.0283 11.3225 15.0584C11.5348 15.2438 11.7555 15.4097 11.988 15.5691C12.0099 15.5841 12.0318 15.5992 12.0543 15.6147C12.074 15.628 12.0937 15.6414 12.1139 15.6552C12.1279 15.6659 12.1419 15.6766 12.1562 15.6877C12.1562 15.698 12.1562 15.7083 12.1562 15.7189C10.4523 15.7651 8.60133 15.5011 7.0625 14.7502C7.04041 14.7395 7.01833 14.7289 6.99557 14.7179C6.30973 14.3831 5.67847 13.9218 5.25 13.2814C5.23969 13.2505 5.22938 13.2196 5.21875 13.1877C6.75309 12.9276 9.03334 12.9651 10.2709 14.075Z" fill="black"/>
<path d="M18.1528 13.0876C18.1784 13.0874 18.2041 13.0872 18.2304 13.087C18.3125 13.0865 18.3945 13.0863 18.4766 13.0862C18.5183 13.0861 18.5183 13.0861 18.5609 13.0859C18.9744 13.0855 19.375 13.1041 19.7812 13.1877C19.4415 13.8061 18.8853 14.2494 18.2812 14.594C18.2618 14.6052 18.2423 14.6164 18.2222 14.628C16.7191 15.4865 14.8322 15.7503 13.125 15.719C13.2234 15.6134 13.3328 15.5327 13.4512 15.4514C13.766 15.2307 14.0517 14.9786 14.3358 14.7201C14.3988 14.6632 14.4628 14.608 14.5273 14.553C14.6185 14.4745 14.701 14.3907 14.7834 14.3031C15.5779 13.4696 17.0355 13.094 18.1528 13.0876Z" fill="black"/>
<path d="M10.7474 15.9132C11.2482 15.9627 11.7468 15.9889 12.25 15.9999C11.7873 16.4882 11.0762 16.7472 10.4375 16.9061C10.4162 16.9117 10.3949 16.9172 10.3729 16.923C9.54458 17.1305 8.59525 17.0227 7.78125 16.8124C7.81654 16.7065 7.83123 16.6977 7.92212 16.642C7.94498 16.6279 7.96784 16.6138 7.99139 16.5993C8.01614 16.5845 8.0409 16.5698 8.06641 16.5546C8.09191 16.5393 8.11741 16.524 8.14368 16.5082C8.96555 16.0226 9.7963 15.8186 10.7474 15.9132Z" fill="black"/>
<path d="M15.4375 15.9366C15.4713 15.9439 15.4713 15.9439 15.5058 15.9513C16.1006 16.0849 16.7495 16.3542 17.2188 16.7491C17.2188 16.7697 17.2188 16.7904 17.2188 16.8116C17.0983 16.8371 16.9779 16.8625 16.8574 16.8878C16.8235 16.895 16.7895 16.9022 16.7546 16.9096C16.7214 16.9165 16.6883 16.9235 16.6542 16.9306C16.6239 16.937 16.5936 16.9434 16.5624 16.95C15.9764 17.0619 15.2329 17.0711 14.6562 16.9054C14.6185 16.8948 14.6185 16.8948 14.5799 16.884C14.0225 16.7236 13.5467 16.4848 13.0938 16.1241C13.0628 16.1035 13.0319 16.0829 13 16.0616C13 16.041 13 16.0204 13 15.9991C13.0202 15.9987 13.0403 15.9982 13.0611 15.9977C13.48 15.9874 13.8936 15.9652 14.3102 15.922C14.6932 15.8827 15.0586 15.8524 15.4375 15.9366Z" fill="black"/>
<path d="M12.625 16.0625C12.6855 16.0957 12.6855 16.0957 12.75 16.1562C12.9108 16.926 12.7714 17.9652 12.4688 18.6875C12.4063 18.7188 12.4063 18.7188 12.3086 18.6895C12.2789 18.6785 12.2493 18.6675 12.2188 18.6562C12.2267 18.6229 12.2346 18.5895 12.2428 18.5552C12.2786 18.4018 12.3118 18.248 12.3438 18.0938C12.3487 18.0697 12.3537 18.0457 12.3589 18.0209C12.4637 17.4939 12.4965 16.9022 12.4147 16.3696C12.4063 16.25 12.4063 16.25 12.451 16.1815C12.4717 16.1674 12.4924 16.1532 12.5137 16.1387C12.5445 16.1164 12.5445 16.1164 12.576 16.0936C12.5922 16.0834 12.6084 16.0731 12.625 16.0625Z" fill="black"/>
</svg>
