<svg width="21" height="20" viewBox="0 0 21 20" fill="none" xmlns="http://www.w3.org/2000/svg">
<g clip-path="url(#clip0_293_9717)">
<path d="M10.5 0.714286C8.30213 0.714286 6.52041 2.49601 6.52041 4.69387C6.52041 5.68873 6.88546 6.87011 7.48893 7.86533C6.71977 7.5354 5.90869 7.34694 5.19387 7.34694C2.99601 7.34694 1.21429 9.12866 1.21429 11.3265C1.21429 13.5244 2.99601 15.3061 5.19387 15.3061C6.23747 15.3061 7.48631 14.9044 8.5102 14.2472L7.48893 19.2857H13.5111L12.4898 14.2472C13.5137 14.9044 14.7625 15.3061 15.8061 15.3061C18.004 15.3061 19.7857 13.5244 19.7857 11.3265C19.7857 9.12866 18.004 7.34694 15.8061 7.34694C15.0913 7.34694 14.2802 7.5354 13.5111 7.86533C14.1145 6.87011 14.4796 5.68873 14.4796 4.69387C14.4796 2.49601 12.6979 0.714286 10.5 0.714286Z" fill="#FDDC5C"/>
<path fill-rule="evenodd" clip-rule="evenodd" d="M10.5 1.78571C8.83751 1.78571 7.4898 3.13343 7.4898 4.79591C7.4898 5.57917 7.78651 6.57964 8.3103 7.44344C8.51153 7.7753 8.47533 8.19914 8.22074 8.49207C7.96617 8.785 7.55151 8.87993 7.19484 8.72693C6.52687 8.4404 5.85159 8.29081 5.29591 8.29081C3.63343 8.29081 2.28571 9.63853 2.28571 11.301C2.28571 12.9635 3.63343 14.3113 5.29591 14.3113C6.11951 14.3113 7.17941 13.9833 8.06617 13.4142C8.36807 13.2204 8.75661 13.2261 9.05267 13.4287C9.34873 13.6312 9.4948 13.9913 9.42353 14.3429L8.63883 18.2143H12.3612L11.5765 14.3429C11.5052 13.9913 11.6513 13.6312 11.9473 13.4287C12.2434 13.2261 12.6319 13.2204 12.9338 13.4142C13.8206 13.9833 14.8804 14.3113 15.7041 14.3113C17.3666 14.3113 18.7143 12.9635 18.7143 11.301C18.7143 9.63853 17.3666 8.29081 15.7041 8.29081C15.1484 8.29081 14.4731 8.4404 13.8052 8.72693C13.4485 8.87993 13.0338 8.785 12.7793 8.49207C12.5247 8.19914 12.4885 7.7753 12.6897 7.44344C13.2135 6.57964 13.5102 5.57917 13.5102 4.79591C13.5102 3.13343 12.1625 1.78571 10.5 1.78571ZM5.70409 4.79591C5.70409 2.1472 7.85129 0 10.5 0C13.1487 0 15.2959 2.1472 15.2959 4.79591C15.2959 5.35996 15.1981 5.95864 15.0227 6.54954C15.2529 6.5204 15.4809 6.5051 15.7041 6.5051C18.3529 6.5051 20.5 8.65231 20.5 11.301C20.5 13.9497 18.3529 16.097 15.7041 16.097C15.055 16.097 14.3592 15.9674 13.6814 15.7384L14.3282 18.9297C14.3815 19.1923 14.314 19.4649 14.1444 19.6723C13.9748 19.8797 13.7211 20 13.4532 20H7.54683C7.27893 20 7.02519 19.8797 6.85561 19.6723C6.68604 19.4649 6.61854 19.1923 6.67177 18.9297L7.31864 15.7384C6.64084 15.9674 5.94497 16.097 5.29591 16.097C2.6472 16.097 0.5 13.9497 0.5 11.301C0.5 8.65231 2.6472 6.5051 5.29591 6.5051C5.51909 6.5051 5.74707 6.5204 5.97724 6.54954C5.80184 5.95864 5.70409 5.35996 5.70409 4.79591Z" fill="#007C4A"/>
</g>
<defs>
<clipPath id="clip0_293_9717">
<rect width="20" height="20" fill="white" transform="translate(0.5)"/>
</clipPath>
</defs>
</svg>
