<?xml version="1.0" encoding="UTF-8"?>
<svg width="40" height="40" viewBox="0 0 40 40" fill="none" xmlns="http://www.w3.org/2000/svg">
    <path d="M20 0C20 0 25 10 25 20C25 25 22.5 30 20 30C17.5 30 15 25 15 20C15 10 20 0 20 0Z" fill="#00A651"/>
    <path d="M20 0C20 0 15 10 15 20C15 25 17.5 30 20 30C22.5 30 25 25 25 20C25 10 20 0 20 0Z" fill="#00A651"/>
    <path d="M20 0C20 0 30 5 30 15C30 20 25 25 20 25C15 25 10 20 10 15C10 5 20 0 20 0Z" fill="#00A651"/>
    <path d="M20 0C20 0 10 5 10 15C10 20 15 25 20 25C25 25 30 20 30 15C30 5 20 0 20 0Z" fill="#00A651"/>
    <path d="M20 30V40" stroke="#00A651" stroke-width="2"/>
</svg>
