<svg width="24" height="24" viewBox="0 0 24 24" fill="none" xmlns="http://www.w3.org/2000/svg">
    <path d="M12 12C13.1046 12 14 11.1046 14 10C14 8.89543 13.1046 8 12 8C10.8954 8 10 8.89543 10 10C10 11.1046 10.8954 12 12 12Z" stroke="#00863D" stroke-width="2" stroke-linecap="round" stroke-linejoin="round"/>
    <path d="M21 5H3C1.89543 5 1 5.89543 1 7V17C1 18.1046 1.89543 19 3 19H21C22.1046 19 23 18.1046 23 17V7C23 5.89543 22.1046 5 21 5Z" stroke="#00863D" stroke-width="2" stroke-linecap="round" stroke-linejoin="round"/>
    <path d="M18 10C18 14 12 14 12 14C12 14 6 14 6 10" stroke="#00863D" stroke-width="2" stroke-linecap="round" stroke-linejoin="round"/>
</svg>
