<svg width="48" height="48" viewBox="0 0 48 48" fill="none" xmlns="http://www.w3.org/2000/svg">
    <path d="M40 36V12C40 10.9391 39.5786 9.92172 38.8284 9.17157C38.0783 8.42143 37.0609 8 36 8H12C10.9391 8 9.92172 8.42143 9.17157 9.17157C8.42143 9.92172 8 10.9391 8 12V36C8 37.0609 8.42143 38.0783 9.17157 38.8284C9.92172 39.5786 10.9391 40 12 40H36C37.0609 40 38.0783 39.5786 38.8284 38.8284C39.5786 38.0783 40 37.0609 40 36Z" stroke="#00A478" stroke-width="2" stroke-linecap="round" stroke-linejoin="round"/>
    <path d="M32 18L22 28L16 22" stroke="#00A478" stroke-width="2" stroke-linecap="round" stroke-linejoin="round"/>
</svg>
