<svg width="51" height="50" viewBox="0 0 51 50" fill="none" xmlns="http://www.w3.org/2000/svg">
<g clip-path="url(#clip0_370_1589)">
<path d="M25.3047 2.83203C25.5373 2.86934 25.6643 2.89702 25.829 3.07026C25.8682 3.12961 25.9074 3.18897 25.9478 3.25012C25.9921 3.31586 26.0364 3.38159 26.0821 3.44932C26.1504 3.55465 26.1504 3.55465 26.2202 3.66211C26.3149 3.80516 26.4097 3.94821 26.5044 4.09126C26.5497 4.16045 26.5951 4.22964 26.6418 4.30093C26.8443 4.60418 27.0636 4.89574 27.2841 5.18608C27.3555 5.37109 27.3555 5.37109 27.2773 5.6324C27.1602 5.85938 27.1602 5.85938 27.0625 5.95703C27.2166 5.95609 27.2166 5.95609 27.3738 5.95512C27.776 6.06268 27.8074 6.08147 28.0085 6.41365C28.0864 6.56327 28.1616 6.71429 28.2344 6.86646C28.2939 6.97966 28.2939 6.97966 28.3545 7.09515C28.6344 7.65058 28.6344 7.65058 28.5947 7.92196C28.4591 8.29148 28.1817 8.57991 27.9414 8.88672C28.5215 8.79004 28.5215 8.79004 29.1133 8.69141C29.6114 9.56913 29.6114 9.56913 29.571 9.97314C29.3481 10.3529 29.0941 10.69 28.8203 11.0352C29.207 10.9385 29.5938 10.8418 29.9922 10.7422C30.3787 11.5035 30.3787 11.5035 30.395 11.969C30.2453 12.4266 30.0052 12.7149 29.6992 13.0859C30.231 12.9893 30.231 12.9893 30.7734 12.8906C31.2665 14.1793 31.2665 14.1793 31.0664 14.7461C30.8866 14.9968 30.6952 15.2058 30.4805 15.4297C30.8027 15.3975 31.125 15.3652 31.457 15.332C31.5653 15.6897 31.6619 16.0435 31.75 16.4062C31.7891 16.5503 31.7891 16.5503 31.829 16.6973C31.9025 17.081 31.9595 17.3964 31.7456 17.7439C31.4559 18.115 31.1223 18.4352 30.7734 18.75C31.1924 18.7178 31.6113 18.6855 32.043 18.6523C32.4349 20.6122 32.4349 20.6122 32.0624 21.3394C31.8416 21.604 31.6115 21.8359 31.3594 22.0703C31.2267 22.2311 31.0958 22.3933 30.9688 22.5586C31.3555 22.5264 31.7422 22.4941 32.1406 22.4609C32.1486 22.6786 32.1542 22.8963 32.1589 23.114C32.1623 23.2352 32.1657 23.3565 32.1692 23.4814C32.1208 24.0684 31.8013 24.3886 31.4143 24.8108C31.3027 24.9333 31.3027 24.9333 31.1889 25.0584C30.9892 25.2711 30.7858 25.4787 30.5781 25.6836C30.6678 25.6791 30.7574 25.6745 30.8497 25.6699C31.5959 25.6479 32.0932 25.6688 32.7266 26.0742C32.7172 25.966 32.7079 25.8577 32.6983 25.7462C32.6873 25.6032 32.6764 25.4603 32.6655 25.3174C32.6592 25.2461 32.6529 25.1749 32.6465 25.1015C32.5967 24.4179 32.5967 24.4179 32.8242 24.1211C33.0039 23.9761 33.0039 23.9761 33.2087 23.8525C33.2761 23.8107 33.3434 23.769 33.4128 23.7259C33.6055 23.6328 33.6055 23.6328 33.8984 23.6328C34.0552 23.7823 34.0552 23.7823 34.2097 23.9746C34.2615 24.0381 34.3132 24.1015 34.3665 24.1669C34.4054 24.2162 34.4443 24.2656 34.4844 24.3164C34.4814 24.1442 34.4814 24.1442 34.4783 23.9685C34.461 22.9836 34.461 22.9836 34.8163 22.596C34.9122 22.5232 35.0081 22.4505 35.1069 22.3755C35.2024 22.3012 35.2978 22.2269 35.3961 22.1504C35.6562 21.9727 35.6562 21.9727 35.9492 21.875C36.1104 22.0684 36.2715 22.2617 36.4375 22.4609C36.4414 22.3902 36.4453 22.3194 36.4493 22.2466C36.531 21.4903 36.531 21.4903 36.8312 21.1849C37.4014 20.8008 37.4014 20.8008 37.8047 20.8008C37.998 21.1392 37.998 21.1392 38.1953 21.4844C38.2003 21.4054 38.2054 21.3265 38.2106 21.2452C38.2991 20.4109 38.2991 20.4109 38.5672 20.1225C38.7691 19.9929 38.9414 19.8913 39.1719 19.8242C39.6007 19.9672 39.6484 20.2127 39.8555 20.6055C39.863 20.4854 39.863 20.4854 39.8707 20.3629C39.959 19.5246 39.959 19.5246 40.224 19.2619C40.4353 19.1496 40.5941 19.0726 40.832 19.043C41.21 19.1777 41.3312 19.3762 41.5156 19.7266C41.5207 19.6606 41.5257 19.5946 41.5309 19.5267C41.6188 18.8356 41.6188 18.8356 41.867 18.605C42.0729 18.4986 42.27 18.4255 42.4922 18.3594C42.5702 18.3343 42.6483 18.3093 42.7287 18.2835C43.1596 18.1645 43.1596 18.1645 43.3711 18.1641C43.5431 18.3071 43.5431 18.3071 43.6641 18.457C43.6963 18.2959 43.7285 18.1348 43.7617 17.9688C45.7655 17.2852 45.7655 17.2852 46.3984 17.2852C46.2939 18.1854 46.1545 19.0471 45.9102 19.9219C45.7168 19.9541 45.5234 19.9863 45.3242 20.0195C45.4854 20.1484 45.6465 20.2773 45.8125 20.4102C45.5603 21.8517 45.5603 21.8517 45.2323 22.1382C45.0251 22.2107 45.0251 22.2107 44.6406 22.2656C44.5439 22.2979 44.4473 22.3301 44.3477 22.3633C44.6055 22.4922 44.8633 22.6211 45.1289 22.7539C45.0773 23.1067 45.0082 23.4163 44.8359 23.7305C44.521 23.9013 44.209 23.9589 43.8594 24.0234C43.8271 24.0557 43.7949 24.0879 43.7617 24.1211C43.9873 24.25 44.2129 24.3789 44.4453 24.5117C44.3288 25.1916 44.3288 25.1916 44.1523 25.4883C43.7562 25.6453 43.4053 25.7093 42.9805 25.6836C42.9805 25.748 42.9805 25.8125 42.9805 25.8789C43.0731 25.9071 43.1658 25.9353 43.2612 25.9644C43.5664 26.0742 43.5664 26.0742 43.7617 26.2695C43.6849 26.4285 43.6075 26.5871 43.5298 26.7456C43.4867 26.834 43.4437 26.9223 43.3993 27.0134C43.2734 27.2461 43.2734 27.2461 43.0781 27.4414C42.8454 27.5032 42.8454 27.5032 42.5776 27.5513C42.4888 27.5676 42.3999 27.584 42.3083 27.6009C42.2401 27.6127 42.1719 27.6245 42.1016 27.6367C42.3271 27.7656 42.5527 27.8945 42.7852 28.0273C42.3431 29.1667 42.3431 29.1667 41.9062 29.5898C41.4149 29.7395 40.9528 29.7766 40.4414 29.7852C40.6992 29.9785 40.957 30.1719 41.2227 30.3711C41.0813 30.804 40.8609 31.0842 40.5574 31.4209C40.4742 31.5151 40.391 31.6092 40.3052 31.7062C39.8837 32.0829 39.4924 32.0434 38.946 32.0374C38.8417 32.0365 38.7373 32.0356 38.6298 32.0347C38.5114 32.033 38.5114 32.033 38.3906 32.0312C38.6388 32.2836 38.8836 32.5089 39.1719 32.7148C39.0148 33.1234 38.734 33.4279 38.3906 33.6914C38.16 33.7894 37.9546 33.8372 37.707 33.8867C37.7715 33.9189 37.8359 33.9512 37.9023 33.9844C37.9634 34.2834 37.9634 34.2834 38 34.5703C38.0397 34.4963 38.0397 34.4963 38.0801 34.4208C38.2338 34.1889 38.3552 34.0455 38.5859 33.8867C39.0469 33.8258 39.4908 33.8468 39.9531 33.8867C39.9854 34.0479 40.0176 34.209 40.0508 34.375C40.1203 34.2542 40.1203 34.2542 40.1912 34.1309C40.4718 33.8571 40.5213 33.8513 40.8931 33.8501C41.1417 33.8608 41.2923 33.8727 41.5156 33.9844C41.5156 34.1455 41.5156 34.3066 41.5156 34.4727C41.5962 34.3901 41.6768 34.3075 41.7598 34.2224C41.9564 34.055 42.0538 33.9868 42.3144 33.9737C42.5056 33.9995 42.6946 34.0398 42.8828 34.082C42.8828 34.3076 42.8828 34.5332 42.8828 34.7656C42.9654 34.6669 43.048 34.5682 43.1331 34.4666C43.2929 34.3037 43.2929 34.3037 43.4688 34.1797C43.8472 34.1919 43.8472 34.1919 44.1523 34.2773C44.2168 34.4707 44.2812 34.6641 44.3477 34.8633C44.39 34.7948 44.4323 34.7263 44.4758 34.6558C44.7383 34.4727 44.7383 34.4727 44.9965 34.4868C45.7101 34.6168 45.7101 34.6168 46.0078 34.7656C46.0723 34.8623 46.1367 34.959 46.2031 35.0586C46.2354 34.9941 46.2676 34.9297 46.3008 34.8633C46.9853 35.0322 47.6194 35.2383 48.2539 35.5469C47.943 35.9277 47.6253 36.2859 47.2651 36.6211C47.2024 36.6795 47.1398 36.7379 47.0752 36.7981C46.8867 36.9141 46.8867 36.9141 46.6678 36.8835C46.5828 36.8503 46.5828 36.8503 46.4961 36.8164C46.4961 36.8849 46.4961 36.9534 46.4961 37.0239C46.3644 37.4026 46.1618 37.5613 45.8396 37.7903C45.5759 37.9093 45.455 37.9003 45.1777 37.8296C45.0649 37.7853 44.9521 37.741 44.8359 37.6953C44.9004 37.8887 44.9648 38.082 45.0312 38.2812C44.7952 38.4716 44.6223 38.575 44.3148 38.5719C44.0963 38.5464 43.8805 38.5157 43.6641 38.4766C43.7285 38.6377 43.793 38.7988 43.8594 38.9648C43.6213 39.1785 43.6213 39.1785 43.2734 39.3555C42.96 39.303 42.6832 39.1934 42.3945 39.0625C42.459 39.2559 42.5234 39.4492 42.5898 39.6484C41.9808 40.0425 41.9808 40.0425 41.6438 40.0269C41.4292 39.9456 41.2279 39.8575 41.0273 39.7461C41.0918 39.9395 41.1562 40.1328 41.2227 40.332C40.1986 40.8121 40.1986 40.8121 39.5625 40.625C39.2756 40.4724 39.2756 40.4724 39.0742 40.332C39.1387 40.5576 39.2031 40.7832 39.2695 41.0156C37.9442 41.4636 37.9442 41.4636 37.3721 41.1987C37.1535 41.0789 36.9409 40.9539 36.7305 40.8203C36.7949 41.0459 36.8594 41.2715 36.9258 41.5039C36.5597 41.687 36.1524 41.6547 35.7539 41.6016C35.4388 41.4692 35.1578 41.3045 34.875 41.1133C34.9072 41.3066 34.9395 41.5 34.9727 41.6992C34.0972 41.8043 33.2505 41.3975 32.5312 40.918C32.5635 40.9925 32.5957 41.067 32.6289 41.1438C32.7266 41.4062 32.7266 41.4062 32.7266 41.6992C31.9683 41.7534 31.5087 41.5903 30.9195 41.1087C30.7042 40.9186 30.493 40.7256 30.2852 40.5273C30.2852 40.8174 30.2852 41.1074 30.2852 41.4062C29.3086 41.3086 29.3086 41.3086 27.0625 40.7227C27.0625 42.8496 27.0625 44.9766 27.0625 47.168C26.0635 47.168 25.0645 47.168 24.0352 47.168C24.0029 45.0732 23.9707 42.9785 23.9375 40.8203C22.584 41.1587 22.584 41.1587 21.2031 41.5039C21.042 41.5039 20.8809 41.5039 20.7148 41.5039C20.6826 41.2461 20.6504 40.9883 20.6172 40.7227C20.5442 40.7838 20.4712 40.845 20.3959 40.9081C20.2998 40.9879 20.2036 41.0677 20.1045 41.1499C20.0093 41.2292 19.9142 41.3085 19.8161 41.3902C19.4235 41.694 19.1871 41.8237 18.6885 41.8091C18.6104 41.8073 18.5324 41.8056 18.452 41.8037C18.3636 41.8003 18.3636 41.8003 18.2734 41.7969C18.3589 41.2354 18.3589 41.2354 18.4688 41.0156C18.3326 41.0862 18.3326 41.0862 18.1937 41.1583C18.0718 41.2206 17.9498 41.2829 17.8279 41.3452C17.7684 41.3762 17.7089 41.4072 17.6476 41.4391C16.6735 41.9338 16.6735 41.9338 16.1799 41.8579C16.1044 41.8277 16.1044 41.8277 16.0273 41.7969C16.0596 41.6035 16.0918 41.4102 16.125 41.2109C16.074 41.2462 16.023 41.2814 15.9705 41.3177C15.3593 41.7031 14.8857 41.7593 14.1719 41.6992C14.081 41.4447 14.0597 41.3436 14.1658 41.0889C14.2171 41.0043 14.2171 41.0043 14.2695 40.918C14.214 40.9532 14.1585 40.9885 14.1013 41.0248C13.6168 41.316 13.2861 41.4875 12.707 41.4062C12.377 41.3208 12.0534 41.2224 11.7305 41.1133C11.7949 40.8877 11.8594 40.6621 11.9258 40.4297C11.8531 40.4737 11.8531 40.4737 11.7789 40.5186C11.2981 40.7877 11.0127 40.8731 10.4609 40.7227C10.2266 40.6344 10.0044 40.5363 9.77734 40.4297C9.8418 40.2363 9.90625 40.043 9.97266 39.8438C9.84274 39.9193 9.84274 39.9193 9.71021 39.9963C9.35734 40.1495 9.25229 40.1661 8.89844 40.0391C8.62378 39.8865 8.62378 39.8865 8.41016 39.7461C8.44238 39.585 8.47461 39.4238 8.50781 39.2578C8.39099 39.2981 8.27417 39.3384 8.15381 39.3799C7.78575 39.4755 7.74581 39.4634 7.38477 39.27C7.3042 39.2015 7.22363 39.1331 7.14062 39.0625C7.20508 38.9014 7.26953 38.7402 7.33594 38.5742C7.24927 38.5899 7.24927 38.5899 7.16084 38.6059C6.52269 38.7027 6.52269 38.7027 6.15796 38.5315C6.09552 38.4811 6.03308 38.4308 5.96875 38.3789C6.0332 38.1855 6.09766 37.9922 6.16406 37.793C6.05328 37.8393 5.9425 37.8856 5.82837 37.9333C5.52761 38.0114 5.4165 38.0054 5.13524 37.8628C4.90033 37.6874 4.69357 37.5286 4.50391 37.3047C4.50391 37.1758 4.50391 37.0469 4.50391 36.9141C4.45179 36.9406 4.39967 36.9672 4.34598 36.9946C4.11328 37.0117 4.11328 37.0117 3.82565 36.8C3.72096 36.703 3.61749 36.6046 3.51514 36.5051C3.46264 36.4567 3.41015 36.4083 3.35606 36.3585C3.09262 36.1098 2.87787 35.8877 2.74609 35.5469C4.31158 34.8633 4.31158 34.8633 4.89453 34.8633C4.99725 34.817 5.09998 34.7706 5.20581 34.7229C5.55887 34.5699 5.87242 34.48 6.26172 34.4727C6.49976 34.6619 6.49976 34.6619 6.65234 34.8633C6.7168 34.6699 6.78125 34.4766 6.84766 34.2773C7.15894 34.2041 7.15894 34.2041 7.53125 34.1797C7.81812 34.3689 7.81812 34.3689 8.01953 34.5703C8.05176 34.4092 8.08398 34.248 8.11719 34.082C8.41139 34.0242 8.69572 33.9787 8.99609 33.9844C9.24634 34.1736 9.24634 34.1736 9.38672 34.375C9.3988 34.3126 9.41089 34.2501 9.42334 34.1858C9.44348 34.1193 9.46362 34.0529 9.48438 33.9844C9.82052 33.8163 10.191 33.8365 10.5586 33.8867C10.8088 34.082 10.8088 34.082 10.9492 34.2773C10.9814 34.1484 11.0137 34.0195 11.0469 33.8867C12.2617 33.7819 12.2617 33.7819 12.6353 34.0389C12.7771 34.21 12.8952 34.3747 13 34.5703C13.0645 34.377 13.1289 34.1836 13.1953 33.9844C13.0966 33.9501 12.9979 33.9159 12.8962 33.8806C12.4644 33.6952 12.0868 33.4035 11.8281 33.0078C11.843 32.8014 11.843 32.8014 11.9258 32.6172C12.176 32.4463 12.176 32.4463 12.4141 32.3242C12.305 32.1925 12.305 32.1925 12.0242 32.2224C11.4174 32.1998 10.9543 32.1784 10.5121 31.728C10.2275 31.3913 9.98292 31.0545 9.77734 30.6641C9.79661 30.4618 9.79661 30.4618 9.875 30.2734C10.1741 30.0537 10.1741 30.0537 10.4609 29.8828C10.3724 29.8846 10.2839 29.8863 10.1928 29.8882C9.26875 29.8432 9.26875 29.8432 8.93959 29.5504C8.7963 29.3789 8.67486 29.2057 8.55664 29.0161C8.51844 28.955 8.48024 28.894 8.44089 28.8311C8.29377 28.5681 8.19787 28.3945 8.26672 28.0937C8.42907 27.9081 8.57307 27.8255 8.80078 27.7344C8.73708 27.7327 8.67339 27.7311 8.60776 27.7294C8.17158 27.6863 7.91213 27.646 7.62547 27.2972C7.47181 27.0219 7.3367 26.7646 7.23828 26.4648C7.27051 26.3682 7.30273 26.2715 7.33594 26.1719C7.63501 26.0559 7.63501 26.0559 7.92188 25.9766C7.92188 25.9121 7.92188 25.8477 7.92188 25.7812C7.79901 25.7672 7.67615 25.7531 7.54956 25.7385C7.29427 25.7092 7.0943 25.6682 6.84766 25.5859C6.67165 25.2591 6.55469 25.008 6.55469 24.6338C6.68563 24.3392 6.85634 24.2596 7.14062 24.1211C7.07353 24.1113 7.00643 24.1015 6.9373 24.0913C6.65005 24.0313 6.42198 23.9697 6.16406 23.8281C5.99158 23.514 5.92274 23.2045 5.87109 22.8516C6.16113 22.6582 6.16113 22.6582 6.45703 22.4609C6.36866 22.453 6.36866 22.453 6.2785 22.4449C5.99477 22.3909 5.81696 22.3338 5.57812 22.168C5.29564 21.5856 5.09575 20.9492 5.28516 20.3125C5.31738 20.248 5.34961 20.1836 5.38281 20.1172C5.32098 20.0947 5.25915 20.0722 5.19544 20.049C4.99219 19.9219 4.99219 19.9219 4.91043 19.7102C4.89549 19.6244 4.88055 19.5385 4.86516 19.45C4.84835 19.3559 4.83155 19.2618 4.81423 19.1648C4.79843 19.0662 4.78263 18.9676 4.76636 18.866C4.74867 18.7685 4.73098 18.671 4.71276 18.5705C4.6333 18.1064 4.58436 17.7476 4.69922 17.2852C5.30939 17.3798 5.91261 17.5029 6.51196 17.6514C6.6269 17.6791 6.74183 17.7068 6.86024 17.7353C7.14062 17.8711 7.14062 17.8711 7.27757 18.1778C7.29683 18.2699 7.31609 18.3621 7.33594 18.457C7.37584 18.4074 7.41575 18.3578 7.45686 18.3067C7.62891 18.1641 7.62891 18.1641 7.82231 18.1679C8.0519 18.2288 8.28034 18.2909 8.50781 18.3594C8.62054 18.3902 8.62054 18.3902 8.73555 18.4216C8.94727 18.4875 8.94727 18.4875 9.28906 18.6523C9.38672 18.8721 9.38672 18.8721 9.38672 19.1406C9.38873 19.2635 9.39075 19.3864 9.39282 19.5129C9.39081 19.6157 9.38879 19.7184 9.38672 19.8242C9.45117 19.8242 9.51562 19.8242 9.58203 19.8242C9.61023 19.7497 9.63843 19.6752 9.66748 19.5984C9.77734 19.3359 9.77734 19.3359 9.97266 19.043C10.2794 19.1149 10.5677 19.1979 10.8516 19.3359C11.0845 19.7459 11.0655 20.1411 11.0469 20.6055C11.3023 20.3744 11.4633 20.1228 11.6328 19.8242C12.0103 19.9358 12.3226 20.0363 12.6094 20.3125C12.7685 20.6706 12.7134 21.1005 12.707 21.4844C12.7715 21.4844 12.8359 21.4844 12.9023 21.4844C12.9477 21.3696 12.9477 21.3696 12.9939 21.2524C13.0977 20.9961 13.0977 20.9961 13.1953 20.8008C13.6312 20.8536 14.0641 20.9587 14.3672 21.2891C14.4846 21.676 14.5315 22.0586 14.5625 22.4609C14.7236 22.2676 14.8848 22.0742 15.0508 21.875C15.2865 21.9978 15.5094 22.1249 15.7344 22.2656C15.8413 22.3317 15.8413 22.3317 15.9503 22.3991C16.3111 22.661 16.4897 22.83 16.5866 23.2758C16.6107 23.5922 16.6209 23.9016 16.6133 24.2188C16.8066 24.0254 17 23.832 17.1992 23.6328C17.3299 23.697 17.46 23.7623 17.5898 23.8281C17.6681 23.8668 17.7464 23.9054 17.8271 23.9452C18.1055 24.1147 18.2813 24.2427 18.4688 24.5117C18.4872 25.0234 18.3964 25.4817 18.2734 25.9766C18.4003 25.9041 18.4003 25.9041 18.5298 25.8301C19.0928 25.5818 19.7226 25.6611 20.3242 25.6836C20.022 25.3224 19.7217 24.9805 19.3782 24.6582C18.877 24.1559 18.7467 23.7067 18.7434 23.0042C18.7495 22.8249 18.7555 22.6456 18.7617 22.4609C19.1484 22.4609 19.5352 22.4609 19.9336 22.4609C19.8735 22.402 19.8135 22.3431 19.7516 22.2824C19.6727 22.2044 19.5938 22.1263 19.5125 22.0459C19.4343 21.9689 19.3561 21.8918 19.2756 21.8124C19.2027 21.7364 19.1298 21.6604 19.0547 21.582C18.9974 21.5268 18.9401 21.4715 18.8811 21.4146C18.6873 21.0523 18.7274 20.6855 18.7373 20.282C18.7378 20.201 18.7383 20.12 18.7388 20.0365C18.7448 19.5664 18.7818 19.1159 18.8594 18.6523C19.2783 18.6846 19.6973 18.7168 20.1289 18.75C20.0595 18.6863 19.9902 18.6226 19.9187 18.557C19.829 18.4716 19.7392 18.3863 19.6467 18.2983C19.5572 18.2145 19.4677 18.1307 19.3755 18.0443C19.1149 17.728 19.0624 17.5949 19.0547 17.1875C19.0998 16.8615 19.1693 16.5436 19.2439 16.2231C19.263 16.1373 19.282 16.0514 19.3017 15.963C19.3486 15.7524 19.3968 15.5422 19.4453 15.332C19.7676 15.3643 20.0898 15.3965 20.4219 15.4297C20.2497 15.2605 20.2497 15.2605 20.074 15.0879C19.8023 14.7751 19.7399 14.699 19.7261 14.27C19.7577 14.1345 19.7949 14.0002 19.8359 13.8672C19.8605 13.7793 19.885 13.6915 19.9103 13.6009C19.979 13.3629 20.0535 13.1266 20.1289 12.8906C20.4834 12.9551 20.8379 13.0195 21.2031 13.0859C21.0309 12.8896 21.0309 12.8896 20.8552 12.6892C20.5213 12.2575 20.5213 12.2575 20.5073 11.8591C20.6311 11.481 20.7613 11.1112 20.9102 10.7422C21.2646 10.8389 21.6191 10.9355 21.9844 11.0352C21.8857 10.8881 21.787 10.7411 21.6853 10.5896C21.4844 10.2524 21.3997 10.0969 21.3862 9.69849C21.5137 9.32314 21.675 9.02612 21.8867 8.69141C22.2412 8.78809 22.5957 8.88477 22.9609 8.98438C22.9093 8.92068 22.8577 8.85698 22.8045 8.79135C22.7393 8.706 22.6741 8.62065 22.6069 8.53271C22.5412 8.44888 22.4755 8.36504 22.4078 8.27866C22.2773 8.00781 22.2773 8.00781 22.3315 7.72667C22.4917 7.38081 22.6549 7.04158 22.8389 6.70776C22.8703 6.64602 22.9018 6.58427 22.9342 6.52065C23.0327 6.3427 23.0327 6.3427 23.2539 6.05469C23.5728 5.96504 23.5728 5.96504 23.8398 5.95703C23.7432 5.86035 23.7432 5.86035 23.6445 5.76172C23.6472 5.17103 23.9849 4.76174 24.3098 4.29688C24.362 4.22059 24.4142 4.1443 24.4679 4.0657C24.5694 3.91742 24.6713 3.7694 24.7735 3.62167C24.9537 3.36048 25.1296 3.09663 25.3047 2.83203Z" fill="#49A31E"/>
<path d="M25.3047 2.83203C25.5373 2.86934 25.6643 2.89702 25.829 3.07026C25.8682 3.12961 25.9074 3.18897 25.9478 3.25012C25.9921 3.31586 26.0364 3.38159 26.0821 3.44932C26.1504 3.55465 26.1504 3.55465 26.2202 3.66211C26.3149 3.80516 26.4097 3.94821 26.5044 4.09126C26.5497 4.16045 26.5951 4.22964 26.6418 4.30093C26.8443 4.60418 27.0636 4.89574 27.2841 5.18608C27.3555 5.37109 27.3555 5.37109 27.2773 5.6324C27.1602 5.85938 27.1602 5.85938 27.0625 5.95703C27.2166 5.95609 27.2166 5.95609 27.3738 5.95512C27.776 6.06268 27.8074 6.08147 28.0085 6.41365C28.0864 6.56327 28.1616 6.71429 28.2344 6.86646C28.2939 6.97966 28.2939 6.97966 28.3545 7.09515C28.6344 7.65058 28.6344 7.65058 28.5947 7.92196C28.4591 8.29148 28.1817 8.57991 27.9414 8.88672C28.5215 8.79004 28.5215 8.79004 29.1133 8.69141C29.6114 9.56913 29.6114 9.56913 29.571 9.97314C29.3481 10.3529 29.0941 10.69 28.8203 11.0352C29.207 10.9385 29.5938 10.8418 29.9922 10.7422C30.3763 11.4987 30.3763 11.4987 30.4011 11.9629C30.2591 12.3816 30.0396 12.6601 29.7572 12.9963C29.5965 13.1753 29.5965 13.1753 29.5039 13.3789C29.8423 13.3306 29.8423 13.3306 30.1875 13.2812C29.6959 15.1989 28.7913 17.0391 27.6484 18.6523C27.8096 18.5234 27.9707 18.3945 28.1367 18.2617C28.0111 18.8829 27.6442 19.4381 27.2006 19.8811C26.4629 20.6198 26.374 21.1586 26.3639 22.1818C26.3656 22.4053 26.3703 22.6282 26.3789 22.8516C27.1299 22.3664 27.8396 21.8609 28.5273 21.2891C28.5903 21.2371 28.6532 21.1851 28.7181 21.1315C28.8503 21.0219 28.9819 20.9114 29.1133 20.8008C28.9759 21.9001 28.1543 22.818 27.325 23.4863C27.079 23.6747 26.8321 23.8515 26.5742 24.0234C26.5248 24.221 26.5248 24.221 26.5242 24.4484C26.5208 24.5315 26.5173 24.6146 26.5138 24.7002C26.5105 24.8305 26.5105 24.8305 26.5071 24.9634C26.5037 25.051 26.5004 25.1386 26.497 25.2289C26.4889 25.4455 26.4822 25.6622 26.4766 25.8789C26.662 25.7736 26.8471 25.6677 27.032 25.5615C27.1351 25.5026 27.2382 25.4437 27.3444 25.383C27.6283 25.2077 27.8814 25.0188 28.1367 24.8047C28.0102 25.1564 27.8614 25.427 27.6301 25.7202C27.5764 25.7895 27.5226 25.8587 27.4672 25.93C27.2578 26.1719 27.2578 26.1719 27.0836 26.3166C26.807 26.5541 26.6033 26.7299 26.5193 27.0932C26.5071 27.3569 26.5142 27.6114 26.5315 27.8748C26.5346 27.9648 26.5377 28.0549 26.5408 28.1477C26.5488 28.3681 26.5611 28.5884 26.5742 28.8086C26.7998 28.6152 27.0254 28.4219 27.2578 28.2227C27.2288 28.8752 26.9458 29.6089 26.4766 30.0781C26.4598 30.2334 26.4495 30.3894 26.4417 30.5454C26.4365 30.6453 26.4312 30.7452 26.4258 30.8481C26.4205 30.9575 26.4153 31.0668 26.4098 31.1794C26.401 31.3485 26.401 31.3485 26.3919 31.5211C26.3666 32.0044 26.3424 32.4878 26.3181 32.9713C26.1982 35.3438 26.1982 35.3438 26.1008 36.3712C26.0954 36.4404 26.0899 36.5097 26.0843 36.581C26.0369 37.0255 25.9159 37.2833 25.5977 37.5977C25.5332 37.5977 25.4688 37.5977 25.4023 37.5977C25.4023 35.374 25.4023 33.1504 25.4023 30.8594C25.2734 30.8271 25.1445 30.7949 25.0117 30.7617C24.3111 30.0883 23.767 29.0863 23.6445 28.125C23.707 28.1895 23.7694 28.2539 23.8337 28.3203C24.2906 28.7772 24.7666 29.2311 25.3047 29.5898C25.3369 28.9131 25.3691 28.2363 25.4023 27.5391C25.2412 27.4746 25.0801 27.4102 24.9141 27.3438C24.744 27.2205 24.744 27.2205 24.5913 27.0813C24.5346 27.0296 24.4779 26.9779 24.4195 26.9246C24.3612 26.8696 24.3028 26.8145 24.2427 26.7578C24.1824 26.7016 24.1222 26.6453 24.0601 26.5874C23.5885 26.1368 23.1999 25.6582 22.8633 25.0977C22.8955 25.0332 22.9277 24.9688 22.9609 24.9023C23.0238 24.9519 23.0866 25.0015 23.1513 25.0526C23.8435 25.58 24.5061 25.926 25.3047 26.2695C25.3369 25.6572 25.3691 25.0449 25.4023 24.4141C25.2412 24.3818 25.0801 24.3496 24.9141 24.3164C24.6286 24.1461 24.3595 23.9587 24.0863 23.7694C24.005 23.7243 23.9236 23.6792 23.8398 23.6328C23.5185 23.7399 23.4523 23.8133 23.2417 24.0662C22.8985 24.4722 22.542 24.864 22.1812 25.2544C21.9803 25.4768 21.9803 25.4768 21.8608 25.7191C21.6988 25.9654 21.5574 26.1023 21.3344 26.2902C20.9376 26.6319 20.5689 26.9933 20.2033 27.3678C20.0737 27.4991 19.944 27.6304 19.8144 27.7617C19.6131 27.966 19.412 28.1706 19.2114 28.3757C19.0157 28.5755 18.8192 28.7743 18.6225 28.973C18.5624 29.0349 18.5022 29.0969 18.4403 29.1607C18.2925 29.3094 18.137 29.4504 17.9805 29.5898C17.8838 29.5898 17.7871 29.5898 17.6875 29.5898C17.6875 29.6865 17.6875 29.7832 17.6875 29.8828C17.623 29.8828 17.5586 29.8828 17.4922 29.8828C17.4671 29.9396 17.4421 29.9964 17.4163 30.0549C17.286 30.2934 17.1386 30.4515 16.949 30.6458C16.2702 31.3914 15.7833 32.3005 15.3438 33.2031C15.4082 33.2031 15.4727 33.2031 15.5391 33.2031C15.5391 33.2676 15.5391 33.332 15.5391 33.3984C15.4746 33.3984 15.4102 33.3984 15.3438 33.3984C15.1714 33.7 15.1484 33.8118 15.1484 34.1797C16.1877 34.4913 17.1945 34.6653 18.2734 34.7656C17.9156 35.144 17.9156 35.144 17.6204 35.2539C17.5458 35.2861 17.4713 35.3184 17.3945 35.3516C17.3079 35.5509 17.3079 35.5509 17.2969 35.7422C17.3714 35.7704 17.4459 35.7986 17.5227 35.8276C17.7852 35.9375 17.7852 35.9375 18.0781 36.1328C18.268 36.1627 18.268 36.1627 18.4749 36.1588C18.5522 36.1591 18.6296 36.1595 18.7093 36.1599C18.8319 36.1586 18.8319 36.1586 18.957 36.1572C19.0401 36.1568 19.1232 36.1565 19.2087 36.1561C19.8233 36.1477 20.4102 36.0879 21.0078 35.9375C20.8668 36.2538 20.6897 36.4863 20.4585 36.7432C20.366 36.8466 20.366 36.8466 20.2716 36.9522C20.2245 37.0041 20.1774 37.0559 20.1289 37.1094C20.3443 37.2197 20.56 37.3295 20.7759 37.439C20.8362 37.4699 20.8965 37.5009 20.9586 37.5328C21.3258 37.7184 21.687 37.868 22.082 37.9883C21.9873 37.1205 21.8709 36.2758 21.6605 35.4267C21.5983 35.1748 21.545 34.9228 21.4961 34.668C21.8665 34.9724 22.1864 35.2581 22.4727 35.6445C22.5693 35.6768 22.666 35.709 22.7656 35.7422C22.9205 35.9982 23.0613 36.2523 23.199 36.5173C23.7847 37.6095 24.4597 38.6394 25.1929 39.6381C25.4023 39.9414 25.4023 39.9414 25.4023 40.1367C25.2275 40.2022 25.0525 40.2672 24.8774 40.332C24.78 40.3683 24.6826 40.4045 24.5822 40.4419C24.3281 40.5273 24.3281 40.5273 24.1328 40.5273C24.1006 40.7529 24.0684 40.9785 24.0352 41.2109C24.0029 41.082 23.9707 40.9531 23.9375 40.8203C23.8572 40.841 23.7769 40.8617 23.6942 40.8831C23.395 40.96 23.0956 41.0363 22.7961 41.1124C22.6667 41.1453 22.5374 41.1785 22.4082 41.2118C22.2219 41.2599 22.0354 41.3071 21.849 41.3544C21.737 41.383 21.625 41.4116 21.5096 41.4412C21.2334 41.4977 20.9953 41.5168 20.7148 41.5039C20.6826 41.2461 20.6504 40.9883 20.6172 40.7227C20.5442 40.7838 20.4712 40.845 20.3959 40.9081C20.2998 40.9879 20.2036 41.0677 20.1045 41.1499C20.0093 41.2292 19.9142 41.3085 19.8161 41.3902C19.4235 41.694 19.1871 41.8237 18.6885 41.8091C18.6104 41.8073 18.5324 41.8056 18.452 41.8037C18.3636 41.8003 18.3636 41.8003 18.2734 41.7969C18.3589 41.2354 18.3589 41.2354 18.4688 41.0156C18.3326 41.0862 18.3326 41.0862 18.1937 41.1583C18.0718 41.2206 17.9498 41.2829 17.8279 41.3452C17.7684 41.3762 17.7089 41.4072 17.6476 41.4391C16.6735 41.9338 16.6735 41.9338 16.1799 41.8579C16.1044 41.8277 16.1044 41.8277 16.0273 41.7969C16.0596 41.6035 16.0918 41.4102 16.125 41.2109C16.074 41.2462 16.023 41.2814 15.9705 41.3177C15.3593 41.7031 14.8857 41.7593 14.1719 41.6992C14.081 41.4447 14.0597 41.3436 14.1658 41.0889C14.2171 41.0043 14.2171 41.0043 14.2695 40.918C14.214 40.9532 14.1585 40.9885 14.1013 41.0248C13.6168 41.316 13.2861 41.4875 12.707 41.4062C12.377 41.3208 12.0534 41.2224 11.7305 41.1133C11.7949 40.8877 11.8594 40.6621 11.9258 40.4297C11.8531 40.4737 11.8531 40.4737 11.7789 40.5186C11.2981 40.7877 11.0127 40.8731 10.4609 40.7227C10.2266 40.6344 10.0044 40.5363 9.77734 40.4297C9.8418 40.2363 9.90625 40.043 9.97266 39.8438C9.84274 39.9193 9.84274 39.9193 9.71021 39.9963C9.35734 40.1495 9.25229 40.1661 8.89844 40.0391C8.62378 39.8865 8.62378 39.8865 8.41016 39.7461C8.44238 39.585 8.47461 39.4238 8.50781 39.2578C8.39099 39.2981 8.27417 39.3384 8.15381 39.3799C7.78575 39.4755 7.74581 39.4634 7.38477 39.27C7.3042 39.2015 7.22363 39.1331 7.14062 39.0625C7.20508 38.9014 7.26953 38.7402 7.33594 38.5742C7.24927 38.5899 7.24927 38.5899 7.16084 38.6059C6.52269 38.7027 6.52269 38.7027 6.15796 38.5315C6.09552 38.4811 6.03308 38.4308 5.96875 38.3789C6.0332 38.1855 6.09766 37.9922 6.16406 37.793C6.05328 37.8393 5.9425 37.8856 5.82837 37.9333C5.52761 38.0114 5.4165 38.0054 5.13524 37.8628C4.90033 37.6874 4.69357 37.5286 4.50391 37.3047C4.50391 37.1758 4.50391 37.0469 4.50391 36.9141C4.45179 36.9406 4.39967 36.9672 4.34598 36.9946C4.11328 37.0117 4.11328 37.0117 3.82565 36.8C3.72096 36.703 3.61749 36.6046 3.51514 36.5051C3.46264 36.4567 3.41015 36.4083 3.35606 36.3585C3.09262 36.1098 2.87787 35.8877 2.74609 35.5469C4.31158 34.8633 4.31158 34.8633 4.89453 34.8633C4.99725 34.817 5.09998 34.7706 5.20581 34.7229C5.55887 34.5699 5.87242 34.48 6.26172 34.4727C6.49976 34.6619 6.49976 34.6619 6.65234 34.8633C6.7168 34.6699 6.78125 34.4766 6.84766 34.2773C7.15894 34.2041 7.15894 34.2041 7.53125 34.1797C7.81812 34.3689 7.81812 34.3689 8.01953 34.5703C8.05176 34.4092 8.08398 34.248 8.11719 34.082C8.41139 34.0242 8.69572 33.9787 8.99609 33.9844C9.24634 34.1736 9.24634 34.1736 9.38672 34.375C9.3988 34.3126 9.41089 34.2501 9.42334 34.1858C9.44348 34.1193 9.46362 34.0529 9.48438 33.9844C9.82052 33.8163 10.191 33.8365 10.5586 33.8867C10.8088 34.082 10.8088 34.082 10.9492 34.2773C10.9814 34.1484 11.0137 34.0195 11.0469 33.8867C12.2617 33.7819 12.2617 33.7819 12.6353 34.0389C12.7771 34.21 12.8952 34.3747 13 34.5703C13.0645 34.377 13.1289 34.1836 13.1953 33.9844C13.0966 33.9501 12.9979 33.9159 12.8962 33.8806C12.4644 33.6952 12.0868 33.4035 11.8281 33.0078C11.843 32.8014 11.843 32.8014 11.9258 32.6172C12.176 32.4463 12.176 32.4463 12.4141 32.3242C12.305 32.1925 12.305 32.1925 12.0242 32.2224C11.4174 32.1998 10.9543 32.1784 10.5121 31.728C10.2275 31.3913 9.98292 31.0545 9.77734 30.6641C9.79661 30.4618 9.79661 30.4618 9.875 30.2734C10.1741 30.0537 10.1741 30.0537 10.4609 29.8828C10.3724 29.8846 10.2839 29.8863 10.1928 29.8882C9.26875 29.8432 9.26875 29.8432 8.93959 29.5504C8.7963 29.3789 8.67486 29.2057 8.55664 29.0161C8.51844 28.955 8.48024 28.894 8.44089 28.8311C8.29377 28.5681 8.19787 28.3945 8.26672 28.0937C8.42907 27.9081 8.57307 27.8255 8.80078 27.7344C8.73708 27.7327 8.67339 27.7311 8.60776 27.7294C8.17158 27.6863 7.91213 27.646 7.62547 27.2972C7.47181 27.0219 7.3367 26.7646 7.23828 26.4648C7.27051 26.3682 7.30273 26.2715 7.33594 26.1719C7.63501 26.0559 7.63501 26.0559 7.92188 25.9766C7.92188 25.9121 7.92188 25.8477 7.92188 25.7812C7.79901 25.7672 7.67615 25.7531 7.54956 25.7385C7.29427 25.7092 7.0943 25.6682 6.84766 25.5859C6.67165 25.2591 6.55469 25.008 6.55469 24.6338C6.68563 24.3392 6.85634 24.2596 7.14062 24.1211C7.07353 24.1113 7.00643 24.1015 6.9373 24.0913C6.65005 24.0313 6.42198 23.9697 6.16406 23.8281C5.99158 23.514 5.92274 23.2045 5.87109 22.8516C6.16113 22.6582 6.16113 22.6582 6.45703 22.4609C6.36866 22.453 6.36866 22.453 6.2785 22.4449C5.99477 22.3909 5.81696 22.3338 5.57812 22.168C5.29564 21.5856 5.09575 20.9492 5.28516 20.3125C5.31738 20.248 5.34961 20.1836 5.38281 20.1172C5.32098 20.0947 5.25915 20.0722 5.19544 20.049C4.99219 19.9219 4.99219 19.9219 4.91043 19.7102C4.89549 19.6244 4.88055 19.5385 4.86516 19.45C4.84835 19.3559 4.83155 19.2618 4.81423 19.1648C4.79843 19.0662 4.78263 18.9676 4.76636 18.866C4.74867 18.7685 4.73098 18.671 4.71276 18.5705C4.6333 18.1064 4.58436 17.7476 4.69922 17.2852C5.30939 17.3798 5.91261 17.5029 6.51196 17.6514C6.6269 17.6791 6.74183 17.7068 6.86024 17.7353C7.14062 17.8711 7.14062 17.8711 7.27757 18.1778C7.29683 18.2699 7.31609 18.3621 7.33594 18.457C7.37584 18.4074 7.41575 18.3578 7.45686 18.3067C7.62891 18.1641 7.62891 18.1641 7.82231 18.1679C8.0519 18.2288 8.28034 18.2909 8.50781 18.3594C8.62054 18.3902 8.62054 18.3902 8.73555 18.4216C8.94727 18.4875 8.94727 18.4875 9.28906 18.6523C9.38672 18.8721 9.38672 18.8721 9.38672 19.1406C9.38873 19.2635 9.39075 19.3864 9.39282 19.5129C9.39081 19.6157 9.38879 19.7184 9.38672 19.8242C9.45117 19.8242 9.51562 19.8242 9.58203 19.8242C9.61023 19.7497 9.63843 19.6752 9.66748 19.5984C9.77734 19.3359 9.77734 19.3359 9.97266 19.043C10.2794 19.1149 10.5677 19.1979 10.8516 19.3359C11.0845 19.7459 11.0655 20.1411 11.0469 20.6055C11.3023 20.3744 11.4633 20.1228 11.6328 19.8242C12.0103 19.9358 12.3226 20.0363 12.6094 20.3125C12.7685 20.6706 12.7134 21.1005 12.707 21.4844C12.7715 21.4844 12.8359 21.4844 12.9023 21.4844C12.9477 21.3696 12.9477 21.3696 12.9939 21.2524C13.0977 20.9961 13.0977 20.9961 13.1953 20.8008C13.6312 20.8536 14.0641 20.9587 14.3672 21.2891C14.4846 21.676 14.5315 22.0586 14.5625 22.4609C14.7236 22.2676 14.8848 22.0742 15.0508 21.875C15.2865 21.9978 15.5094 22.1249 15.7344 22.2656C15.8413 22.3317 15.8413 22.3317 15.9503 22.3991C16.3111 22.661 16.4897 22.83 16.5866 23.2758C16.6107 23.5922 16.6209 23.9016 16.6133 24.2188C16.8066 24.0254 17 23.832 17.1992 23.6328C17.3299 23.697 17.46 23.7623 17.5898 23.8281C17.6681 23.8668 17.7464 23.9054 17.8271 23.9452C18.1055 24.1147 18.2813 24.2427 18.4688 24.5117C18.4872 25.0234 18.3964 25.4817 18.2734 25.9766C18.4003 25.9041 18.4003 25.9041 18.5298 25.8301C19.0928 25.5818 19.7226 25.6611 20.3242 25.6836C20.022 25.3224 19.7217 24.9805 19.3782 24.6582C18.877 24.1559 18.7467 23.7067 18.7434 23.0042C18.7495 22.8249 18.7555 22.6456 18.7617 22.4609C19.1484 22.4609 19.5352 22.4609 19.9336 22.4609C19.8735 22.402 19.8135 22.3431 19.7516 22.2824C19.6727 22.2044 19.5938 22.1263 19.5125 22.0459C19.4343 21.9689 19.3561 21.8918 19.2756 21.8124C19.2027 21.7364 19.1298 21.6604 19.0547 21.582C18.9974 21.5268 18.9401 21.4715 18.8811 21.4146C18.6873 21.0523 18.7274 20.6855 18.7373 20.282C18.7378 20.201 18.7383 20.12 18.7388 20.0365C18.7448 19.5664 18.7818 19.1159 18.8594 18.6523C19.2783 18.6846 19.6973 18.7168 20.1289 18.75C20.0595 18.6863 19.9902 18.6226 19.9187 18.557C19.829 18.4716 19.7392 18.3863 19.6467 18.2983C19.5572 18.2145 19.4677 18.1307 19.3755 18.0443C19.1149 17.728 19.0624 17.5949 19.0547 17.1875C19.0998 16.8615 19.1693 16.5436 19.2439 16.2231C19.263 16.1373 19.282 16.0514 19.3017 15.963C19.3486 15.7524 19.3968 15.5422 19.4453 15.332C19.7676 15.3643 20.0898 15.3965 20.4219 15.4297C20.2497 15.2605 20.2497 15.2605 20.074 15.0879C19.8023 14.7751 19.7399 14.699 19.7261 14.27C19.7577 14.1345 19.7949 14.0002 19.8359 13.8672C19.8605 13.7793 19.885 13.6915 19.9103 13.6009C19.979 13.3629 20.0535 13.1266 20.1289 12.8906C20.4834 12.9551 20.8379 13.0195 21.2031 13.0859C21.0309 12.8896 21.0309 12.8896 20.8552 12.6892C20.5213 12.2575 20.5213 12.2575 20.5073 11.8591C20.6311 11.481 20.7613 11.1112 20.9102 10.7422C21.2646 10.8389 21.6191 10.9355 21.9844 11.0352C21.8857 10.8881 21.787 10.7411 21.6853 10.5896C21.4844 10.2524 21.3997 10.0969 21.3862 9.69849C21.5137 9.32314 21.675 9.02612 21.8867 8.69141C22.2412 8.78809 22.5957 8.88477 22.9609 8.98438C22.9093 8.92068 22.8577 8.85698 22.8045 8.79135C22.7393 8.706 22.6741 8.62065 22.6069 8.53271C22.5412 8.44888 22.4755 8.36504 22.4078 8.27866C22.2773 8.00781 22.2773 8.00781 22.3315 7.72667C22.4917 7.38081 22.6549 7.04158 22.8389 6.70776C22.8703 6.64602 22.9018 6.58427 22.9342 6.52065C23.0327 6.3427 23.0327 6.3427 23.2539 6.05469C23.5728 5.96504 23.5728 5.96504 23.8398 5.95703C23.7432 5.86035 23.7432 5.86035 23.6445 5.76172C23.6472 5.17103 23.9849 4.76174 24.3098 4.29688C24.362 4.22059 24.4142 4.1443 24.4679 4.0657C24.5694 3.91742 24.6713 3.7694 24.7735 3.62167C24.9537 3.36048 25.1296 3.09663 25.3047 2.83203Z" fill="#3F871C"/>
<path d="M46.3993 17.2852C46.2948 18.1854 46.1554 19.0471 45.9111 19.9219C45.621 19.9702 45.621 19.9702 45.3251 20.0195C45.4862 20.1484 45.6474 20.2773 45.8134 20.4102C45.5612 21.8517 45.5612 21.8517 45.2332 22.1382C45.026 22.2107 45.026 22.2107 44.6415 22.2656C44.5448 22.2979 44.4482 22.3301 44.3486 22.3633C44.6064 22.4922 44.8642 22.6211 45.1298 22.7539C45.0782 23.1066 45.0072 23.4155 44.8368 23.7305C44.3805 24.0006 43.893 24.0365 43.372 24.0234C43.368 24.1141 43.3639 24.2047 43.3598 24.2981C43.2743 24.6094 43.2743 24.6094 43.0241 24.7803C42.6534 24.9151 42.2919 25.0114 41.9071 25.0977C42.165 25.2266 42.4228 25.3555 42.6884 25.4883C42.6355 25.9327 42.5302 26.2758 42.2978 26.6602C41.9902 26.7627 41.7716 26.7677 41.4494 26.7639C41.3523 26.763 41.2553 26.7622 41.1553 26.7612C41.0811 26.7601 41.007 26.759 40.9306 26.7578C40.9306 26.8223 40.9306 26.8867 40.9306 26.9531C41.0031 26.9813 41.0756 27.0095 41.1503 27.0386C41.3766 27.1312 41.5926 27.2313 41.8095 27.3438C41.7447 27.5066 41.6795 27.6694 41.6142 27.832C41.5685 27.9563 41.5685 27.9563 41.5219 28.083C41.3605 28.4326 41.2223 28.7302 40.848 28.8815C40.3938 29.0035 39.9332 29.0583 39.4657 29.1016C39.7236 29.2949 39.9814 29.4883 40.247 29.6875C40.0385 30.2954 39.6528 30.7332 39.1728 31.1523C38.8794 31.2882 38.6144 31.3252 38.2939 31.3477C38.1291 31.368 37.9643 31.3883 37.7995 31.4087C37.6726 31.4208 37.5457 31.4329 37.415 31.4453C37.4632 31.4772 37.5114 31.509 37.5611 31.5418C37.6236 31.5845 37.6862 31.6272 37.7507 31.6711C37.813 31.7131 37.8753 31.755 37.9395 31.7982C38.0986 31.9336 38.0986 31.9336 38.1962 32.2266C37.8715 32.7201 37.5313 33.0035 36.95 33.1249C36.4884 33.2025 36.0253 33.2557 35.5595 33.3008C35.8979 33.5425 35.8979 33.5425 36.2431 33.7891C36.1454 34.082 36.1454 34.082 35.9196 34.2285C34.9579 34.6197 33.9465 34.7444 32.9228 34.8633C32.9721 34.8963 33.0215 34.9292 33.0723 34.9632C33.1675 35.0286 33.1675 35.0286 33.2646 35.0952C33.3597 35.1598 33.3597 35.1598 33.4568 35.2257C33.5309 35.288 33.5309 35.288 33.6064 35.3516C33.6064 35.416 33.6064 35.4805 33.6064 35.5469C33.6708 35.5469 33.7353 35.5469 33.8017 35.5469C33.8017 35.6113 33.8017 35.6758 33.8017 35.7422C33.0428 36.3476 32.1843 36.3264 31.2626 36.2305C30.8316 36.1637 30.4116 36.0598 29.9931 35.9375C30.0565 36.0116 30.12 36.0858 30.1853 36.1622C30.3077 36.3078 30.3077 36.3078 30.4325 36.4563C30.5141 36.5526 30.5957 36.6489 30.6797 36.7481C30.872 37.0117 30.872 37.0117 30.872 37.3047C30.618 37.4193 30.3636 37.5331 30.1091 37.6465C30.0009 37.6954 30.0009 37.6954 29.8907 37.7453C29.7863 37.7915 29.7863 37.7915 29.6799 37.8387C29.616 37.8674 29.552 37.896 29.4862 37.9255C29.3095 37.9883 29.3095 37.9883 29.0165 37.9883C28.9468 35.9288 28.9468 35.9288 29.3095 35.3516C29.6954 34.9794 30.148 34.6909 30.5946 34.3977C31.7298 33.6372 32.7743 32.6572 33.7803 31.7356C33.8876 31.6403 33.8876 31.6403 33.997 31.543C34.0699 31.4698 34.1428 31.3967 34.2179 31.3213C34.5822 31.0911 34.8861 31.1305 35.297 31.1768C35.4055 31.1864 35.4055 31.1864 35.5162 31.1962C35.6936 31.2122 35.8707 31.2309 36.0478 31.25C36.0478 31.1855 36.0478 31.1211 36.0478 31.0547C35.7577 30.958 35.4677 30.8613 35.1689 30.7617C35.1689 30.2703 35.5589 30.0125 35.8891 29.6753C35.9554 29.6029 36.0218 29.5305 36.0901 29.4559C36.5467 28.9891 36.8666 28.8197 37.5239 28.8029C37.5846 28.8048 37.6454 28.8067 37.7079 28.8086C37.5468 28.7119 37.3857 28.6152 37.2196 28.5156C37.3628 28.1814 37.5498 27.9722 37.8117 27.7222C38.0903 27.463 38.0903 27.463 38.2939 27.1484C38.7128 27.1484 39.1318 27.1484 39.5634 27.1484C39.5634 27.084 39.5634 27.0195 39.5634 26.9531C39.4869 26.939 39.4103 26.9249 39.3315 26.9104C39.0751 26.8555 39.0751 26.8555 38.8798 26.7578C39.0102 26.1157 39.5491 25.5093 40.0517 25.0977C40.3922 24.9742 40.6706 24.9527 41.0282 25C41.0282 24.9355 41.0282 24.8711 41.0282 24.8047C40.8349 24.7725 40.6415 24.7402 40.4423 24.707C40.5728 24.4332 40.7189 24.1856 40.8917 23.9365C40.9395 23.8672 40.9873 23.798 41.0366 23.7267C41.0862 23.6554 41.1358 23.5842 41.1869 23.5107C41.2625 23.4016 41.2625 23.4016 41.3395 23.2903C41.4634 23.1113 41.5875 22.9325 41.7118 22.7539C41.5912 22.7427 41.5912 22.7427 41.4628 22.8973C41.3672 22.9955 41.3672 22.9955 41.2697 23.0957C41.2004 23.1662 41.1311 23.2367 41.0597 23.3093C40.9128 23.4597 40.766 23.6102 40.6195 23.761C40.5501 23.8315 40.4806 23.902 40.4091 23.9746C40.3453 24.0401 40.2815 24.1055 40.2157 24.173C40.0517 24.3164 40.0517 24.3164 39.8564 24.3164C39.7275 24.0264 39.5986 23.7363 39.4657 23.4375C39.4641 23.5378 39.4625 23.6382 39.4608 23.7415C39.4204 24.5416 39.3241 25.0743 38.7211 25.6348C38.55 25.7879 38.3767 25.9318 38.1962 26.0742C37.8368 25.744 37.6124 25.4468 37.415 25C37.4263 25.1226 37.4376 25.2452 37.4493 25.3716C37.5378 26.7523 37.5378 26.7523 37.2044 27.1961C36.5639 27.832 36.5639 27.832 36.2431 27.832C36.0958 27.6287 36.0958 27.6287 35.9379 27.3621C35.8853 27.2748 35.8327 27.1876 35.7785 27.0977C35.6571 26.8555 35.6571 26.8555 35.6571 26.5625C35.5927 26.5625 35.5282 26.5625 35.4618 26.5625C35.4758 26.7578 35.4901 26.9531 35.5046 27.1484C35.5125 27.2572 35.5204 27.366 35.5286 27.478C35.5476 27.8075 35.5476 27.8075 35.6085 28.0233C35.6578 28.2355 35.682 28.3963 35.6571 28.6133C35.4731 28.9038 35.2356 29.1183 34.9797 29.3457C34.914 29.4074 34.8484 29.4691 34.7807 29.5326C34.6189 29.6841 34.4555 29.8331 34.29 29.9805C33.6995 29.3996 33.6995 29.3996 33.6064 29.1016C33.6546 28.7394 33.7723 28.4122 33.9002 28.0711C34.257 27.118 34.4914 26.1594 34.6989 25.1648C35.0737 23.4066 35.0737 23.4066 35.2246 22.7604C35.2453 22.6703 35.2661 22.5803 35.2876 22.4875C35.3954 22.1752 35.5659 22.0299 35.8525 21.875C36.0478 22.0703 36.2431 22.2656 36.4384 22.4609C36.4423 22.3902 36.4462 22.3194 36.4502 22.2466C36.5319 21.4903 36.5319 21.4903 36.8321 21.1849C37.4023 20.8008 37.4023 20.8008 37.8056 20.8008C37.9345 21.0264 38.0634 21.252 38.1962 21.4844C38.2038 21.366 38.2038 21.366 38.2115 21.2452C38.3 20.4109 38.3 20.4109 38.5681 20.1225C38.77 19.9929 38.9423 19.8913 39.1728 19.8242C39.6016 19.9672 39.6493 20.2127 39.8564 20.6055C39.8639 20.4854 39.8639 20.4854 39.8716 20.3629C39.9599 19.5246 39.9599 19.5246 40.2249 19.2619C40.4362 19.1496 40.595 19.0726 40.8329 19.043C41.2109 19.1777 41.3321 19.3762 41.5165 19.7266C41.5216 19.6606 41.5266 19.5946 41.5318 19.5267C41.6197 18.8356 41.6197 18.8356 41.8679 18.605C42.0738 18.4986 42.2709 18.4255 42.4931 18.3594C42.5711 18.3343 42.6492 18.3093 42.7296 18.2835C43.1605 18.1645 43.1605 18.1645 43.372 18.1641C43.544 18.3071 43.544 18.3071 43.665 18.457C43.6972 18.2959 43.7294 18.1348 43.7626 17.9688C45.7664 17.2852 45.7664 17.2852 46.3993 17.2852Z" fill="#56C523"/>
<path d="M23.6445 23.5352C24.0006 23.6673 24.3111 23.829 24.6333 24.0295C24.8948 24.1921 25.1093 24.3164 25.4023 24.4141C25.4023 25.0586 25.4023 25.7031 25.4023 26.3672C24.5319 26.0639 23.8175 25.6094 23.0586 25.0977C23.3495 25.9702 24.2137 26.6874 24.9141 27.2461C25.0485 27.2971 25.0485 27.2971 25.1857 27.3491C25.4023 27.5391 25.4023 27.5391 25.4408 27.7631C25.4506 28.0541 25.4448 28.3407 25.4329 28.6316C25.4307 28.7327 25.4285 28.8339 25.4262 28.9381C25.4204 29.188 25.4124 29.4377 25.4023 29.6875C24.4665 29.0846 24.4665 29.0846 24.1267 28.7231C24.0712 28.665 24.0157 28.6068 23.9585 28.5469C23.9193 28.5044 23.8802 28.4618 23.8398 28.418C23.8398 29.2396 24.549 30.1905 25.1094 30.7617C25.2544 30.8101 25.2544 30.8101 25.4023 30.8594C25.4288 31.7354 25.4519 32.6115 25.4709 33.4877C25.4798 33.8947 25.4899 34.3015 25.5025 34.7084C25.5146 35.1016 25.5238 35.4947 25.531 35.888C25.5342 36.0375 25.5385 36.187 25.5439 36.3364C25.5761 37.2542 25.5157 37.8537 24.9141 38.5742C24.8454 38.7026 24.7792 38.8324 24.7188 38.9648C24.4449 38.7065 24.2387 38.4567 24.0474 38.1329C23.9975 38.0491 23.9477 37.9653 23.8963 37.879C23.8454 37.7922 23.7946 37.7054 23.7422 37.616C23.6913 37.5303 23.6405 37.4446 23.5881 37.3564C23.4432 37.1118 23.2996 36.8665 23.1563 36.6211C23.1155 36.5526 23.0747 36.484 23.0327 36.4134C22.7656 35.9596 22.7656 35.9596 22.7656 35.7422C22.7097 35.7353 22.6538 35.7283 22.5963 35.7212C22.2933 35.6162 22.1654 35.4421 21.96 35.199C21.891 35.1183 21.822 35.0376 21.7509 34.9545C21.6991 34.8921 21.6472 34.8298 21.5938 34.7656C21.6568 35.0342 21.7199 35.3027 21.783 35.5713C21.8008 35.6472 21.8186 35.7231 21.8369 35.8013C21.8542 35.875 21.8716 35.9486 21.8894 36.0245C21.9052 36.092 21.9211 36.1595 21.9374 36.229C21.9693 36.3624 22.003 36.4953 22.0385 36.6278C22.1003 36.8957 22.0911 37.1524 22.0881 37.4268C22.0873 37.532 22.0864 37.6372 22.0855 37.7457C22.0843 37.8257 22.0832 37.9058 22.082 37.9883C21.5739 37.9321 21.1797 37.7642 20.7271 37.5427C20.6598 37.5106 20.5926 37.4784 20.5233 37.4453C20.359 37.3665 20.1951 37.2869 20.0313 37.207C20.3503 36.7784 20.6708 36.3523 21.0078 35.9375C20.9393 35.9677 20.8709 35.9979 20.8003 36.0291C20.2208 36.2432 19.6291 36.2565 19.0181 36.2671C18.9388 36.2707 18.8595 36.2744 18.7777 36.2782C18.1593 36.2871 17.7852 36.116 17.2969 35.7422C17.3746 35.3697 17.3746 35.3697 17.5536 35.2066C17.6159 35.1658 17.6782 35.125 17.7424 35.083C17.805 35.0412 17.8676 34.9994 17.932 34.9564C18.0043 34.9103 18.0043 34.9103 18.0781 34.8633C17.9894 34.8537 17.9006 34.8441 17.8092 34.8343C17.1302 34.7535 16.4652 34.6513 15.8015 34.4849C15.6208 34.4399 15.6208 34.4399 15.4364 34.3941C15.1484 34.2773 15.1484 34.2773 15.01 34.0691C14.9912 34.0089 14.9725 33.9487 14.9531 33.8867C15.0782 33.72 15.2088 33.5573 15.3438 33.3984C15.4082 33.3984 15.4727 33.3984 15.5391 33.3984C15.5391 33.334 15.5391 33.2695 15.5391 33.2031C15.4746 33.2031 15.4102 33.2031 15.3438 33.2031C15.481 32.7363 15.6803 32.3306 15.9297 31.9153C15.9676 31.8518 16.0056 31.7882 16.0447 31.7228C16.3768 31.185 16.7635 30.7337 17.2023 30.2807C17.3988 30.0934 17.3988 30.0934 17.4922 29.8828C17.5566 29.8828 17.6211 29.8828 17.6875 29.8828C17.6875 29.7861 17.6875 29.6895 17.6875 29.5898C17.7522 29.551 17.817 29.5122 17.8837 29.4722C18.2993 29.2227 18.6055 28.8872 18.9429 28.5419C19.0155 28.4687 19.088 28.3954 19.1627 28.3199C19.3937 28.0865 19.6241 27.8525 19.8542 27.6184C20.1582 27.3092 20.4628 27.0007 20.7679 26.6926C20.838 26.6209 20.908 26.5492 20.9803 26.4753C21.0451 26.4098 21.11 26.3442 21.1769 26.2767C21.234 26.2186 21.291 26.1605 21.3498 26.1006C21.4961 25.9766 21.4961 25.9766 21.6914 25.9766C21.7002 25.9197 21.709 25.8628 21.7181 25.8041C21.8071 25.5306 21.9337 25.4154 22.1431 25.2197C22.6884 24.6949 23.1786 24.1315 23.6445 23.5352Z" fill="#49A21F"/>
<path d="M39.6541 33.8203C39.7527 33.8425 39.8514 33.8646 39.9531 33.8875C40.0015 34.1292 40.0015 34.1292 40.0508 34.3757C40.0971 34.2952 40.1434 34.2146 40.1912 34.1316C40.4718 33.8578 40.5213 33.852 40.8931 33.8508C41.1417 33.8616 41.2923 33.8734 41.5156 33.9851C41.5156 34.1462 41.5156 34.3074 41.5156 34.4734C41.5962 34.3908 41.6768 34.3082 41.7598 34.2231C41.9564 34.0557 42.0538 33.9875 42.3144 33.9744C42.5056 34.0003 42.6946 34.0406 42.8828 34.0828C42.8828 34.3083 42.8828 34.5339 42.8828 34.7664C42.9654 34.6677 43.048 34.569 43.1331 34.4673C43.2929 34.3044 43.2929 34.3044 43.4688 34.1804C43.8472 34.1926 43.8472 34.1926 44.1523 34.2781C44.249 34.5681 44.249 34.5681 44.3477 34.864C44.39 34.7955 44.4323 34.7271 44.4758 34.6565C44.7383 34.4734 44.7383 34.4734 44.9965 34.4875C45.7101 34.6175 45.7101 34.6175 46.0078 34.7664C46.1045 34.9114 46.1045 34.9114 46.2031 35.0593C46.2354 34.9949 46.2676 34.9304 46.3008 34.864C46.5586 34.9285 46.8164 34.9929 47.082 35.0593C46.9353 35.4701 46.6635 35.6198 46.3008 35.8406C46.1074 35.7439 46.1074 35.7439 45.9102 35.6453C45.9424 35.8064 45.9746 35.9675 46.0078 36.1335C45.7351 36.4037 45.4703 36.6387 45.1289 36.8171C44.7975 36.7913 44.5401 36.6826 44.25 36.5242C44.3467 36.7498 44.4434 36.9753 44.543 37.2078C44.3965 37.3604 44.3965 37.3604 44.1523 37.5007C43.7757 37.503 43.4339 37.424 43.0781 37.3054C43.1124 37.3618 43.1466 37.4182 43.1819 37.4763C43.2734 37.696 43.2734 37.696 43.249 37.9097C43.1758 38.0867 43.1758 38.0867 42.9805 38.1843C42.5682 38.2118 42.28 38.1649 41.9062 37.989C42.0029 38.2791 42.0029 38.2791 42.1016 38.575C41.6973 38.876 41.6973 38.876 41.418 38.9656C41.1031 38.9143 40.8278 38.8062 40.5391 38.6726C40.6357 38.9626 40.6357 38.9626 40.7344 39.2585C39.7361 39.7182 39.7361 39.7182 39.1719 39.5515C38.9766 39.519 38.7812 39.4864 38.5859 39.4539C38.6826 39.6956 38.6826 39.6956 38.7812 39.9421C38.2557 40.1423 37.7875 40.3164 37.2188 40.2351C36.9118 40.0932 36.6251 39.928 36.3398 39.7468C36.3882 40.1335 36.3882 40.1335 36.4375 40.5281C35.5636 40.6194 35.0198 40.4171 34.2891 39.9421C34.3374 40.2805 34.3374 40.2805 34.3867 40.6257C33.7804 40.6767 33.4077 40.5214 32.8792 40.2351C32.772 40.1792 32.772 40.1792 32.6627 40.1222C32.488 40.0309 32.3142 39.9378 32.1406 39.8445C32.1406 40.1218 32.1799 40.3559 32.2383 40.6257C31.7448 40.7094 31.4401 40.701 31.0252 40.4152C30.6288 40.1177 30.2452 39.8045 29.8945 39.4539C29.8623 39.7439 29.8301 40.0339 29.7969 40.3328C29.5913 40.3052 29.3858 40.2765 29.1804 40.2473C29.066 40.2315 28.9516 40.2156 28.8337 40.1992C28.5273 40.1375 28.5273 40.1375 28.2344 39.9421C29.1539 39.3168 29.962 39.1911 31.056 39.1398C32.2076 39.0789 33.3254 38.8782 34.4577 38.6671C35.286 38.5159 36.0076 38.3991 36.8281 38.6726C36.7798 38.4792 36.7798 38.4792 36.7305 38.282C36.9477 38.2135 37.1655 38.1467 37.3835 38.0806C37.5048 38.0432 37.626 38.0058 37.7509 37.9673C38.286 37.8501 38.6643 38.0073 39.1719 38.1843C39.1235 37.8943 39.1235 37.8943 39.0742 37.5984C39.8477 37.3567 39.8477 37.3567 40.6367 37.1101C40.0566 37.1101 39.4766 37.1101 38.8789 37.1101C38.8306 36.8201 38.8306 36.8201 38.7812 36.5242C38.4973 36.7409 38.2975 36.9079 38.0977 37.2078C37.8269 37.2453 37.5759 37.2667 37.3042 37.2749C37.2306 37.2782 37.1569 37.2816 37.081 37.285C36.8991 37.2931 36.7171 37.2994 36.5352 37.3054C36.5352 37.1765 36.5352 37.0476 36.5352 36.9148C36.7275 36.7477 36.9124 36.6067 37.1211 36.4631C37.9207 35.8801 38.4376 35.2191 38.9338 34.3635C39.2191 33.8963 39.2191 33.8963 39.6541 33.8203Z" fill="#56C523"/>
<path d="M10.5586 33.8875C10.8088 34.0828 10.8088 34.0828 10.9492 34.2781C10.9814 34.1492 11.0137 34.0203 11.0469 33.8875C12.2353 33.7688 12.2353 33.7688 12.6605 34.0512C12.8403 34.2519 12.9848 34.4238 13.0977 34.6688C13.0654 34.7654 13.0332 34.8621 13 34.9617C12.9634 34.9053 12.9267 34.8489 12.889 34.7908C12.839 34.7183 12.789 34.6458 12.7375 34.5711C12.6645 34.4623 12.6645 34.4623 12.5899 34.3514C12.423 34.1534 12.423 34.1534 12.1497 34.1561C12.0758 34.1641 12.0019 34.1722 11.9258 34.1805C12.5877 35.2006 13.3036 36.0619 14.2695 36.8172C14.2373 36.9783 14.2051 37.1395 14.1719 37.3055C13.5264 37.313 13.0339 37.304 12.5361 36.8599C12.4278 36.7505 12.321 36.6394 12.2188 36.5242C12.1865 36.7176 12.1543 36.9109 12.1211 37.1102C11.5732 37.1102 11.0254 37.1102 10.4609 37.1102C10.9384 37.2629 10.9384 37.2629 11.4163 37.414C11.588 37.47 11.757 37.5341 11.9258 37.5984C11.958 37.6629 11.9902 37.7273 12.0234 37.7938C11.9319 38.0501 11.9319 38.0501 11.8281 38.282C11.9349 38.2136 12.0416 38.1451 12.1516 38.0745C12.7902 37.7524 13.3962 37.999 14.0437 38.1966C14.1182 38.2248 14.1927 38.253 14.2695 38.282C14.2695 38.3787 14.2695 38.4754 14.2695 38.575C14.3685 38.5615 14.3685 38.5615 14.4695 38.5476C15.1331 38.4701 15.6886 38.5073 16.3386 38.6482C17.9432 38.9674 19.5687 39.1751 21.2031 39.2586C20.1684 40.5586 20.1684 40.5586 19.4648 40.6685C19.1951 40.6685 19.1951 40.6685 18.7617 40.6258C18.8584 40.3357 18.9551 40.0457 19.0547 39.7469C18.9546 39.801 18.8545 39.8551 18.7514 39.9109C18.6185 39.9824 18.4857 40.0538 18.3528 40.1253C18.287 40.1609 18.2212 40.1965 18.1535 40.2333C17.5958 40.5325 17.1643 40.7536 16.5156 40.7234C16.5801 40.4656 16.6445 40.2078 16.7109 39.9422C16.6459 39.9845 16.5808 40.0268 16.5137 40.0704C15.8391 40.478 15.3471 40.6101 14.5625 40.5281C14.627 40.2703 14.6914 40.0125 14.7578 39.7469C14.6952 39.7821 14.6327 39.8174 14.5682 39.8537C14.0618 40.1254 13.6856 40.3223 13.0977 40.2352C12.8284 40.1513 12.577 40.0519 12.3164 39.9422C12.3486 39.7811 12.3809 39.6199 12.4141 39.4539C12.2993 39.4881 12.1844 39.5224 12.0662 39.5577C11.4202 39.7172 10.9377 39.5808 10.3633 39.2586C10.3955 39.0652 10.4277 38.8719 10.4609 38.6727C10.331 38.7482 10.331 38.7482 10.1985 38.8252C9.84562 38.9784 9.74057 38.995 9.38672 38.868C9.11206 38.7154 9.11206 38.7154 8.89844 38.575C8.99512 38.285 8.99512 38.285 9.09375 37.9891C9.03597 38.0136 8.97819 38.0382 8.91866 38.0635C8.28051 38.3102 8.28051 38.3102 7.91577 38.1539C7.85333 38.0995 7.79089 38.0451 7.72656 37.9891C7.78 37.6595 7.82958 37.4927 8.01953 37.2078C7.91882 37.2582 7.81812 37.3085 7.71436 37.3604C7.35906 37.5122 7.12581 37.5227 6.75 37.4031C6.56689 37.2505 6.56689 37.2505 6.45703 37.1102C6.55371 36.9168 6.65039 36.7234 6.75 36.5242C6.69675 36.5533 6.6435 36.5824 6.58864 36.6123C6.33797 36.7259 6.1466 36.7957 5.87109 36.8172C5.52968 36.6388 5.26487 36.4037 4.99219 36.1336C5.02441 35.9725 5.05664 35.8113 5.08984 35.6453C4.92871 35.7098 4.76758 35.7742 4.60156 35.8406C4.51697 35.758 4.43237 35.6755 4.34521 35.5904C4.09702 35.3832 4.04949 35.3517 3.71045 35.3584C3.43539 35.4399 3.43539 35.4399 3.21606 35.5599C3.03906 35.6453 3.03906 35.6453 2.74609 35.5477C4.31158 34.8641 4.31158 34.8641 4.89453 34.8641C4.99725 34.8177 5.09998 34.7714 5.20581 34.7237C5.55887 34.5707 5.87242 34.4808 6.26172 34.4734C6.49976 34.6626 6.49976 34.6626 6.65234 34.8641C6.7168 34.6707 6.78125 34.4773 6.84766 34.2781C7.15894 34.2049 7.15894 34.2049 7.53125 34.1805C7.81812 34.3697 7.81812 34.3697 8.01953 34.5711C8.05176 34.41 8.08398 34.2488 8.11719 34.0828C8.41139 34.025 8.69572 33.9795 8.99609 33.9852C9.24634 34.1744 9.24634 34.1744 9.38672 34.3758C9.40485 34.2821 9.40485 34.2821 9.42334 34.1866C9.44348 34.1201 9.46362 34.0536 9.48438 33.9852C9.82052 33.8171 10.191 33.8372 10.5586 33.8875Z" fill="#3E871C"/>
<path d="M20.7148 26.9531C20.8348 27.1052 20.9474 27.2631 21.0566 27.4231C21.6175 28.2148 22.273 28.908 22.9609 29.5898C22.3066 29.5361 21.654 29.469 21.0017 29.3945C20.9285 29.3864 20.8552 29.3783 20.7797 29.37C20.2494 29.3083 20.2494 29.3083 20.0312 29.1992C20.2537 30.2695 20.597 30.8698 21.5022 31.4922C21.6298 31.5751 21.758 31.6571 21.8867 31.7383C21.9548 31.7814 22.0229 31.8245 22.0931 31.869C22.5072 32.1282 22.9266 32.3762 23.3516 32.6172C23.0506 32.9181 22.7585 32.9075 22.3426 32.9197C22.2304 32.9186 22.1182 32.9174 22.0027 32.9163C21.8893 32.9154 21.7758 32.9145 21.659 32.9136C21.573 32.9125 21.487 32.9113 21.3984 32.9102C21.4509 33.018 21.4509 33.018 21.5045 33.1281C21.6628 33.454 21.8205 33.7802 21.9783 34.1064C22.0333 34.2196 22.0884 34.3328 22.1452 34.4494C22.1977 34.5583 22.2503 34.6672 22.3044 34.7794C22.3773 34.9297 22.3773 34.9297 22.4517 35.0831C22.55 35.3055 22.6201 35.5049 22.668 35.7422C22.3316 35.6008 22.1444 35.4222 21.9111 35.144C21.8512 35.0733 21.7913 35.0025 21.7296 34.9297C21.6847 34.8755 21.6399 34.8214 21.5938 34.7656C21.6568 35.0342 21.7199 35.3027 21.783 35.5713C21.8008 35.6472 21.8186 35.7231 21.8369 35.8013C21.8542 35.875 21.8716 35.9486 21.8894 36.0245C21.9132 36.1257 21.9132 36.1257 21.9374 36.229C21.9693 36.3624 22.003 36.4953 22.0385 36.6278C22.1003 36.8957 22.0911 37.1524 22.0881 37.4268C22.0873 37.532 22.0864 37.6372 22.0855 37.7457C22.0843 37.8257 22.0832 37.9058 22.082 37.9883C21.5739 37.9321 21.1797 37.7642 20.7271 37.5427C20.6598 37.5106 20.5926 37.4784 20.5233 37.4453C20.359 37.3665 20.1951 37.2869 20.0312 37.207C20.3503 36.7784 20.6708 36.3523 21.0078 35.9375C20.9393 35.9677 20.8708 35.9979 20.8003 36.0291C20.2208 36.2432 19.6291 36.2565 19.0181 36.2671C18.9388 36.2707 18.8595 36.2744 18.7777 36.2782C18.1593 36.2871 17.7852 36.116 17.2969 35.7422C17.3746 35.3697 17.3746 35.3697 17.5536 35.2066C17.6159 35.1658 17.6782 35.125 17.7424 35.083C17.805 35.0412 17.8676 34.9994 17.932 34.9564C18.0043 34.9103 18.0043 34.9103 18.0781 34.8633C17.9894 34.8537 17.9006 34.8441 17.8092 34.8343C17.1302 34.7535 16.4652 34.6513 15.8015 34.4849C15.6208 34.4399 15.6208 34.4399 15.4364 34.3941C15.1484 34.2773 15.1484 34.2773 15.01 34.0691C14.9912 34.0089 14.9725 33.9487 14.9531 33.8867C15.0782 33.72 15.2088 33.5573 15.3438 33.3984C15.4082 33.3984 15.4727 33.3984 15.5391 33.3984C15.5391 33.334 15.5391 33.2695 15.5391 33.2031C15.4746 33.2031 15.4102 33.2031 15.3438 33.2031C15.481 32.7363 15.6803 32.3306 15.9297 31.9153C15.9676 31.8518 16.0056 31.7882 16.0447 31.7228C16.3768 31.185 16.7635 30.7337 17.2023 30.2807C17.3988 30.0934 17.3988 30.0934 17.4922 29.8828C17.5566 29.8828 17.6211 29.8828 17.6875 29.8828C17.6875 29.7861 17.6875 29.6895 17.6875 29.5898C17.8485 29.4892 18.0117 29.3923 18.1758 29.2969C18.3665 29.1198 18.5487 28.9422 18.7293 28.7556C18.7802 28.704 18.831 28.6524 18.8834 28.5992C19.0448 28.4355 19.2054 28.2712 19.366 28.1067C19.5784 27.8891 19.7915 27.6721 20.0049 27.4555C20.0537 27.4052 20.1024 27.3548 20.1526 27.303C20.4975 26.9531 20.4975 26.9531 20.7148 26.9531Z" fill="#3F871C"/>
<path d="M4.11328 35.3514C4.19183 35.4199 4.27039 35.4884 4.35132 35.5589C4.58717 35.7738 4.58717 35.7738 4.87622 35.7176C4.94672 35.6935 5.01721 35.6693 5.08984 35.6444C5.08305 35.7179 5.07625 35.7914 5.06924 35.8672C5.06657 36.1352 5.06657 36.1352 5.22641 36.3188C5.63319 36.6511 5.63319 36.6511 6.14041 36.6904C6.38486 36.6159 6.61516 36.5314 6.84766 36.4256C6.81543 36.5002 6.7832 36.5747 6.75 36.6515C6.63532 36.913 6.63532 36.913 6.65234 37.2069C7.03247 37.4603 7.19073 37.3891 7.62891 37.3045C7.75969 37.2744 7.89029 37.2431 8.01953 37.2069C7.97119 37.3187 7.97119 37.3187 7.92188 37.4327C7.80719 37.6943 7.80719 37.6943 7.82422 37.9881C8.10587 38.1219 8.31345 38.2072 8.62302 38.1312C8.81519 38.0577 9.00365 37.9746 9.19141 37.8905C9.09473 38.2289 9.09473 38.2289 8.99609 38.5741C9.39146 38.8115 9.39146 38.8115 9.83838 38.8426C9.91492 38.8185 9.99146 38.7943 10.0703 38.7694C10.1448 38.7513 10.2194 38.7331 10.2961 38.7145C10.3505 38.7004 10.4049 38.6863 10.4609 38.6717C10.4609 38.8651 10.4609 39.0584 10.4609 39.2577C11.1423 39.5852 11.673 39.5555 12.4141 39.453C12.4141 39.6141 12.4141 39.7752 12.4141 39.9413C13.2125 40.2034 13.2125 40.2034 14.0128 40.0237C14.1681 39.9342 14.3216 39.8416 14.4729 39.7456C14.5347 39.7135 14.5965 39.6814 14.6602 39.6483C14.7246 39.6805 14.7891 39.7127 14.8555 39.7459C14.7588 40.0038 14.6621 40.2616 14.5625 40.5272C15.434 40.5238 16.0568 40.2726 16.8086 39.8436C16.7119 40.1336 16.6152 40.4237 16.5156 40.7225C17.231 40.5359 17.927 40.2925 18.5664 39.9168C18.8594 39.7459 18.8594 39.7459 19.0547 39.7459C18.9902 40.0038 18.9258 40.2616 18.8594 40.5272C19.3454 40.5989 19.6034 40.6126 20.0255 40.3452C20.4332 40.0136 20.8049 39.6916 21.1055 39.2577C21.0247 39.2356 21.0247 39.2356 20.9423 39.2132C20.866 39.1924 20.7897 39.1715 20.711 39.1501C20.5821 39.115 20.5821 39.115 20.4506 39.0791C20.2584 39.0266 20.0661 38.9741 19.8739 38.9214C19.3756 38.785 18.877 38.6502 18.3772 38.5195C17.4325 38.2707 16.5216 38.0194 15.6367 37.5975C15.6367 37.5653 15.6367 37.5331 15.6367 37.4999C16.3094 37.552 16.9519 37.6562 17.6082 37.8111C17.7452 37.8428 17.7452 37.8428 17.885 37.8751C18.6739 38.0599 19.4581 38.262 20.2409 38.471C20.7872 38.6165 21.334 38.7482 21.8867 38.867C21.9189 38.6092 21.9512 38.3514 21.9844 38.0858C22.2002 38.1476 22.415 38.2119 22.6294 38.2784C22.8834 38.3553 23.1369 38.4259 23.3931 38.4943C24.2506 38.7361 24.8479 38.9142 25.3146 39.7292C25.4023 39.9413 25.4023 39.9413 25.4023 40.1366C25.2275 40.2021 25.0525 40.2671 24.8774 40.3319C24.78 40.3681 24.6826 40.4044 24.5822 40.4417C24.3281 40.5272 24.3281 40.5272 24.1328 40.5272C24.1006 40.7528 24.0684 40.9784 24.0352 41.2108C24.0029 41.0819 23.9707 40.953 23.9375 40.8202C23.8171 40.8512 23.8171 40.8512 23.6942 40.8829C23.395 40.9598 23.0956 41.0362 22.7961 41.1122C22.6667 41.1452 22.5374 41.1783 22.4082 41.2117C22.2219 41.2598 22.0354 41.307 21.849 41.3542C21.681 41.3972 21.681 41.3972 21.5096 41.441C21.2334 41.4976 20.9953 41.5166 20.7148 41.5038C20.6826 41.2459 20.6504 40.9881 20.6172 40.7225C20.5442 40.7837 20.4712 40.8449 20.3959 40.9079C20.2998 40.9877 20.2036 41.0675 20.1045 41.1498C20.0093 41.2291 19.9142 41.3084 19.8161 41.3901C19.4235 41.6938 19.1871 41.8236 18.6885 41.8089C18.6104 41.8072 18.5324 41.8054 18.452 41.8036C18.3931 41.8013 18.3341 41.7991 18.2734 41.7967C18.3589 41.2352 18.3589 41.2352 18.4688 41.0155C18.3326 41.0861 18.3326 41.0861 18.1937 41.1581C18.0718 41.2205 17.9498 41.2828 17.8279 41.3451C17.7684 41.376 17.7089 41.407 17.6476 41.4389C16.6735 41.9337 16.6735 41.9337 16.1799 41.8578C16.1296 41.8376 16.0792 41.8175 16.0273 41.7967C16.0596 41.6034 16.0918 41.41 16.125 41.2108C16.0485 41.2637 16.0485 41.2637 15.9705 41.3176C15.3593 41.7029 14.8857 41.7591 14.1719 41.6991C14.081 41.4446 14.0597 41.3434 14.1658 41.0887C14.2 41.0323 14.2343 40.9759 14.2695 40.9178C14.214 40.9531 14.1585 40.9883 14.1013 41.0246C13.6168 41.3158 13.2861 41.4874 12.707 41.4061C12.377 41.3207 12.0534 41.2223 11.7305 41.1131C11.7949 40.8875 11.8594 40.662 11.9258 40.4295C11.8773 40.4589 11.8288 40.4882 11.7789 40.5184C11.2981 40.7876 11.0127 40.873 10.4609 40.7225C10.2266 40.6343 10.0044 40.5361 9.77734 40.4295C9.87402 40.1395 9.87402 40.1395 9.97266 39.8436C9.84274 39.9191 9.84274 39.9191 9.71021 39.9962C9.35734 40.1493 9.25229 40.1659 8.89844 40.0389C8.62378 39.8863 8.62378 39.8863 8.41016 39.7459C8.44238 39.5848 8.47461 39.4237 8.50781 39.2577C8.39099 39.2979 8.27417 39.3382 8.15381 39.3797C7.78575 39.4754 7.74581 39.4633 7.38477 39.2699C7.3042 39.2014 7.22363 39.1329 7.14062 39.0624C7.20508 38.9012 7.26953 38.7401 7.33594 38.5741C7.27816 38.5845 7.22038 38.595 7.16084 38.6057C6.52269 38.7025 6.52269 38.7025 6.15796 38.5313C6.09552 38.481 6.03308 38.4306 5.96875 38.3788C6.0332 38.1854 6.09766 37.992 6.16406 37.7928C6.05328 37.8391 5.9425 37.8855 5.82837 37.9332C5.52761 38.0112 5.4165 38.0052 5.13524 37.8626C4.90033 37.6873 4.69357 37.5284 4.50391 37.3045C4.50391 37.1756 4.50391 37.0467 4.50391 36.9139C4.45179 36.9406 4.39967 36.9673 4.34598 36.9948C4.11328 37.0116 4.11328 37.0116 3.82565 36.7964C3.72097 36.6985 3.61749 36.5992 3.51514 36.4989C3.46264 36.4497 3.41015 36.4004 3.35606 36.3497C3.12061 36.126 2.92686 35.9155 2.74609 35.6444C2.90012 35.5759 3.05489 35.5091 3.20996 35.443C3.33912 35.3869 3.33912 35.3869 3.47089 35.3297C3.74251 35.2478 3.85434 35.2444 4.11328 35.3514Z" fill="#397B1A"/>
<path d="M9.09375 22.4609C9.42205 22.6016 9.6398 22.7781 9.875 23.0469C9.875 23.1113 9.875 23.1758 9.875 23.2422C9.93945 23.2422 10.0039 23.2422 10.0703 23.2422C10.0703 23.3066 10.0703 23.3711 10.0703 23.4375C10.1227 23.4576 10.175 23.4778 10.229 23.4985C10.5588 23.6895 10.7837 23.9436 11.0469 24.2188C11.1758 23.9609 11.3047 23.7031 11.4375 23.4375C11.502 23.4375 11.5664 23.4375 11.6328 23.4375C11.6356 23.539 11.6384 23.6404 11.6412 23.745C11.6856 24.5154 11.7566 25.0261 12.3164 25.5859C12.6166 25.8831 12.6166 25.8831 13 25.9766C13.1934 25.6221 13.3867 25.2676 13.5859 24.9023C13.6504 24.9346 13.7148 24.9668 13.7812 25C13.784 25.1444 13.7858 25.2889 13.7874 25.4333C13.7886 25.5227 13.7899 25.6121 13.7912 25.7042C13.7818 25.9601 13.7362 26.1742 13.6775 26.4221C13.6323 26.7468 13.6685 26.8347 13.8659 27.1057C14.0888 27.3336 14.3077 27.5429 14.5625 27.7344C14.627 27.7344 14.6914 27.7344 14.7578 27.7344C14.8845 27.573 14.8845 27.573 15.002 27.3682C15.0432 27.3002 15.0845 27.2322 15.1271 27.1622C15.2392 26.9653 15.3423 26.7662 15.4414 26.5625C15.4736 26.5625 15.5059 26.5625 15.5391 26.5625C15.561 27.2815 15.5294 27.917 15.3438 28.6133C15.3976 28.6352 15.4515 28.6571 15.507 28.6797C15.8039 28.848 16.0092 29.065 16.2471 29.3091C16.3342 29.398 16.4213 29.4868 16.511 29.5784C16.577 29.6466 16.643 29.7149 16.7109 29.7852C17.0137 29.7131 17.0137 29.7131 17.1748 29.48C17.407 28.9458 17.1789 28.4284 16.9871 27.9096C16.583 26.8117 16.3229 25.6895 16.0762 24.5483C16.0583 24.4667 16.0404 24.3851 16.0219 24.3011C15.9709 24.0671 15.921 23.8328 15.8717 23.5985C15.8563 23.5275 15.8409 23.4564 15.825 23.3833C15.7588 23.0599 15.7257 22.8776 15.832 22.5586C16.3872 22.928 16.3872 22.928 16.4663 23.2337C16.4755 23.4446 16.4693 23.648 16.4546 23.8586C16.4506 23.9671 16.4506 23.9671 16.4466 24.0778C16.4397 24.2551 16.4292 24.4323 16.418 24.6094C16.4824 24.6094 16.5469 24.6094 16.6133 24.6094C16.6193 24.5389 16.6254 24.4684 16.6316 24.3958C16.7348 24.0384 16.9263 23.8777 17.1992 23.6328C17.3299 23.697 17.46 23.7623 17.5898 23.8281C17.6681 23.8668 17.7464 23.9054 17.8271 23.9452C18.1055 24.1147 18.2813 24.2427 18.4688 24.5117C18.4872 25.0234 18.3964 25.4817 18.2734 25.9766C18.358 25.9282 18.4426 25.8799 18.5298 25.8301C19.0928 25.5818 19.7226 25.6611 20.3242 25.6836C20.022 25.3224 19.7217 24.9805 19.3782 24.6582C18.9119 24.193 18.7471 23.7578 18.7434 23.1018C18.7495 22.9548 18.7555 22.8077 18.7617 22.6562C19.1484 22.6885 19.5352 22.7207 19.9336 22.7539C19.9318 22.8427 19.9301 22.9314 19.9283 23.0228C19.9807 24.1339 20.41 24.6269 21.2039 25.3765C21.2599 25.4265 21.316 25.4765 21.3737 25.528C21.4961 25.6836 21.4961 25.6836 21.4961 26.0742C21.3646 26.2547 21.3646 26.2547 21.178 26.4413C21.1086 26.5116 21.0391 26.582 20.9676 26.6545C20.8916 26.7294 20.8156 26.8043 20.7374 26.8814C20.66 26.9589 20.5827 27.0364 20.503 27.1162C20.3392 27.2798 20.1749 27.443 20.0101 27.6057C19.7574 27.8556 19.5066 28.1073 19.2559 28.3592C19.0968 28.5178 18.9375 28.6762 18.7781 28.8345C18.7027 28.9102 18.6273 28.9859 18.5497 29.0639C18.4793 29.133 18.4089 29.2021 18.3365 29.2733C18.2746 29.3346 18.2128 29.3959 18.1492 29.459C17.9805 29.5898 17.9805 29.5898 17.6875 29.5898C17.6875 29.6865 17.6875 29.7832 17.6875 29.8828C17.623 29.8828 17.5586 29.8828 17.4922 29.8828C17.4674 29.9378 17.4426 29.9928 17.417 30.0495C17.137 30.5714 16.7547 31.0785 16.1799 31.2561C16.0651 31.2541 15.9503 31.2521 15.832 31.25C15.7535 31.251 15.6749 31.252 15.594 31.2531C15.3801 31.2557 15.1669 31.2544 14.9531 31.25C14.9531 31.1855 14.9531 31.1211 14.9531 31.0547C15.2432 30.9258 15.5332 30.7969 15.832 30.6641C15.4376 30.1958 15.4376 30.1958 15.0142 29.7546C14.8555 29.5898 14.8555 29.5898 14.8555 29.3945C14.791 29.3945 14.7266 29.3945 14.6602 29.3945C14.6203 29.3316 14.5803 29.2686 14.5392 29.2038C14.3786 28.9761 14.3786 28.9761 14.0822 28.9444C13.9769 28.9399 13.8715 28.9353 13.7629 28.9307C13.6568 28.9251 13.5507 28.9196 13.4414 28.9139C13.3602 28.9114 13.279 28.9088 13.1953 28.9062C13.3312 28.6344 13.5035 28.6153 13.7812 28.5156C13.7263 28.4518 13.7263 28.4518 13.6702 28.3867C13.6203 28.3285 13.5703 28.2704 13.5188 28.2104C13.4644 28.1485 13.41 28.0866 13.354 28.0228C13.1953 27.832 13.1953 27.832 13.0854 27.6596C12.9701 27.4716 12.9701 27.4716 12.707 27.2461C12.421 27.1911 12.1512 27.1729 11.8602 27.1683C11.7851 27.1617 11.7101 27.1552 11.6328 27.1484C11.6006 27.084 11.5684 27.0195 11.5352 26.9531C11.7285 26.8564 11.9219 26.7598 12.1211 26.6602C11.9827 26.4713 11.843 26.2837 11.7011 26.0975C11.5972 25.9607 11.4954 25.8223 11.3967 25.6817C11.0632 25.238 10.7901 25.1046 10.242 25.0187C10.157 25.0094 10.157 25.0094 10.0703 25C10.0703 24.9355 10.0703 24.8711 10.0703 24.8047C10.2314 24.7725 10.3926 24.7402 10.5586 24.707C10.492 24.6102 10.492 24.6102 10.4241 24.5114C10.2246 24.2207 10.0254 23.9298 9.82617 23.6389C9.75631 23.5373 9.68644 23.4356 9.61446 23.3309C9.54837 23.2343 9.48228 23.1376 9.41418 23.0381C9.35282 22.9486 9.29145 22.8591 9.22822 22.7669C9.09375 22.5586 9.09375 22.5586 9.09375 22.4609Z" fill="#367219"/>
<path d="M33.6055 23.7305C33.539 29.5987 33.539 29.5987 32.0338 31.2836C31.9563 31.3531 31.8787 31.4225 31.7988 31.4941C31.0184 32.2438 30.3615 33.1165 29.8823 34.0881C29.6119 34.6211 29.2443 34.8815 28.7227 35.1562C28.6582 35.124 28.5938 35.0918 28.5273 35.0586C28.8854 34.3424 29.2435 33.6263 29.6016 32.9102C29.5178 32.9124 29.4341 32.9147 29.3479 32.917C28.7418 32.9266 28.219 32.9272 27.6484 32.7148C27.9714 32.4461 28.3037 32.2097 28.656 31.9825C29.8399 31.2164 30.5273 30.7319 30.8711 29.2969C30.291 29.3291 29.7109 29.3613 29.1133 29.3945C29.2744 29.2334 29.4355 29.0723 29.6016 28.9062C30.522 27.9717 31.4707 26.9717 31.8477 25.6836C32.2827 25.877 32.2827 25.877 32.7266 26.0742C32.7172 25.966 32.7079 25.8577 32.6983 25.7462C32.6873 25.6032 32.6764 25.4603 32.6655 25.3174C32.6561 25.2105 32.6561 25.2105 32.6465 25.1015C32.5967 24.4178 32.5967 24.4178 32.8242 24.1211C33.3463 23.7305 33.3463 23.7305 33.6055 23.7305Z" fill="#3E851C"/>
<path d="M16.418 31.1523C16.7057 31.281 16.8944 31.416 17.1077 31.6467C17.4714 32.0213 17.866 32.3445 18.2727 32.6714C18.4733 32.8344 18.6707 32.9984 18.8662 33.1673C19.5466 33.7546 20.2474 34.2987 20.9773 34.8232C21.0324 34.8636 21.0875 34.9039 21.1443 34.9454C21.2864 35.0482 21.4313 35.1469 21.5766 35.2451C22.0564 35.706 22.0677 36.5311 22.0996 37.1666C22.1002 37.4413 22.0956 37.714 22.082 37.9883C21.5739 37.9321 21.1797 37.7642 20.7271 37.5427C20.6598 37.5106 20.5926 37.4784 20.5233 37.4453C20.359 37.3665 20.1951 37.2869 20.0312 37.207C20.3503 36.7784 20.6708 36.3523 21.0078 35.9375C20.9393 35.9677 20.8708 35.9979 20.8003 36.0291C20.2208 36.2432 19.6291 36.2565 19.0181 36.2671C18.9388 36.2707 18.8595 36.2744 18.7777 36.2782C18.1593 36.2871 17.7852 36.116 17.2969 35.7422C17.3746 35.3697 17.3746 35.3697 17.5536 35.2066C17.6159 35.1658 17.6782 35.125 17.7424 35.083C17.805 35.0412 17.8676 34.9994 17.932 34.9564C18.0043 34.9103 18.0043 34.9103 18.0781 34.8633C17.9894 34.8537 17.9006 34.8441 17.8092 34.8343C17.1302 34.7535 16.4652 34.6513 15.8015 34.4849C15.681 34.4549 15.5606 34.4249 15.4364 34.3941C15.1484 34.2773 15.1484 34.2773 15.01 34.0691C14.9912 34.0089 14.9725 33.9487 14.9531 33.8867C15.0782 33.72 15.2088 33.5573 15.3437 33.3984C15.4082 33.3984 15.4727 33.3984 15.5391 33.3984C15.5391 33.334 15.5391 33.2695 15.5391 33.2031C15.4746 33.2031 15.4102 33.2031 15.3437 33.2031C15.4871 32.6973 15.7163 32.2907 15.9907 31.8481C16.0318 31.7809 16.0728 31.7137 16.1151 31.6444C16.2155 31.4801 16.3167 31.3162 16.418 31.1523Z" fill="#49A21F"/>
<path d="M4.11328 35.3514C4.19183 35.4199 4.27039 35.4884 4.35132 35.5589C4.58717 35.7738 4.58717 35.7738 4.87622 35.7176C4.94672 35.6935 5.01721 35.6693 5.08984 35.6444C5.08305 35.7179 5.07625 35.7914 5.06924 35.8672C5.06657 36.1352 5.06657 36.1352 5.22641 36.3188C5.63319 36.6511 5.63319 36.6511 6.14041 36.6904C6.38486 36.6159 6.61516 36.5314 6.84766 36.4256C6.81543 36.5002 6.7832 36.5747 6.75 36.6515C6.63532 36.913 6.63532 36.913 6.65234 37.2069C7.03247 37.4603 7.19073 37.3891 7.62891 37.3045C7.75969 37.2744 7.89029 37.2431 8.01953 37.2069C7.97119 37.3187 7.97119 37.3187 7.92188 37.4327C7.80719 37.6943 7.80719 37.6943 7.82422 37.9881C8.10587 38.1219 8.31345 38.2072 8.62302 38.1312C8.81519 38.0577 9.00365 37.9746 9.19141 37.8905C9.09473 38.2289 9.09473 38.2289 8.99609 38.5741C9.39146 38.8115 9.39146 38.8115 9.83838 38.8426C9.91492 38.8185 9.99146 38.7943 10.0703 38.7694C10.1448 38.7513 10.2194 38.7331 10.2961 38.7145C10.3505 38.7004 10.4049 38.6863 10.4609 38.6717C10.4609 38.8651 10.4609 39.0584 10.4609 39.2577C11.1423 39.5852 11.673 39.5555 12.4141 39.453C12.4141 39.6141 12.4141 39.7752 12.4141 39.9413C12.9262 40.112 13.3392 40.1555 13.8789 40.1366C13.9272 40.4749 13.9272 40.4749 13.9766 40.8202C14.1216 40.8685 14.1216 40.8685 14.2695 40.9178C13.7433 41.252 13.349 41.4962 12.707 41.4061C12.377 41.3207 12.0534 41.2223 11.7305 41.1131C11.7949 40.8875 11.8594 40.662 11.9258 40.4295C11.8773 40.4589 11.8288 40.4882 11.7789 40.5184C11.2981 40.7876 11.0127 40.873 10.4609 40.7225C10.2266 40.6343 10.0044 40.5361 9.77734 40.4295C9.87402 40.1395 9.87402 40.1395 9.97266 39.8436C9.84274 39.9191 9.84274 39.9191 9.71021 39.9962C9.35734 40.1493 9.25229 40.1659 8.89844 40.0389C8.62378 39.8863 8.62378 39.8863 8.41016 39.7459C8.44238 39.5848 8.47461 39.4237 8.50781 39.2577C8.39099 39.2979 8.27417 39.3382 8.15381 39.3797C7.78575 39.4754 7.74581 39.4633 7.38477 39.2699C7.3042 39.2014 7.22363 39.1329 7.14062 39.0624C7.20508 38.9012 7.26953 38.7401 7.33594 38.5741C7.27816 38.5845 7.22038 38.595 7.16084 38.6057C6.52269 38.7025 6.52269 38.7025 6.15796 38.5313C6.09552 38.481 6.03308 38.4306 5.96875 38.3788C6.0332 38.1854 6.09766 37.992 6.16406 37.7928C6.05328 37.8391 5.9425 37.8855 5.82837 37.9332C5.52761 38.0112 5.4165 38.0052 5.13524 37.8626C4.90033 37.6873 4.69357 37.5284 4.50391 37.3045C4.50391 37.1756 4.50391 37.0467 4.50391 36.9139C4.45179 36.9406 4.39967 36.9673 4.34598 36.9948C4.11328 37.0116 4.11328 37.0116 3.82565 36.7964C3.72097 36.6985 3.61749 36.5992 3.51514 36.4989C3.46264 36.4497 3.41015 36.4004 3.35606 36.3497C3.12061 36.126 2.92686 35.9155 2.74609 35.6444C2.90012 35.5759 3.05489 35.5091 3.20996 35.443C3.33912 35.3869 3.33912 35.3869 3.47089 35.3297C3.74251 35.2478 3.85434 35.2444 4.11328 35.3514Z" fill="#316517"/>
<path d="M25.4023 11.2305C25.4668 11.2305 25.5312 11.2305 25.5977 11.2305C25.606 11.3004 25.6144 11.3704 25.623 11.4425C25.661 11.7584 25.6995 12.0743 25.738 12.3901C25.7512 12.5003 25.7643 12.6104 25.7779 12.7239C25.7973 12.8816 25.7973 12.8816 25.817 13.0424C25.8288 13.1396 25.8405 13.2368 25.8526 13.3369C25.8785 13.5743 25.8785 13.5743 25.9883 13.7695C26.145 13.6293 26.3017 13.4888 26.4583 13.3484C26.5455 13.2702 26.6327 13.192 26.7226 13.1115C26.9062 12.9441 27.0846 12.7755 27.2578 12.5977C27.2224 13.3935 26.8203 14.0936 26.2874 14.6729C25.9503 15.1075 26.0878 15.6941 26.1451 16.2075C26.1578 16.3053 26.1705 16.4031 26.1836 16.5039C26.3904 16.5254 26.3904 16.5254 26.5406 16.3612C26.6001 16.2996 26.6595 16.2379 26.7207 16.1743C26.7801 16.1131 26.8395 16.052 26.9008 15.9889C26.9541 15.9333 27.0075 15.8776 27.0625 15.8203C27.127 15.7559 27.1914 15.6914 27.2578 15.625C27.2095 16.152 27.0775 16.5201 26.8184 16.98C26.7569 17.0905 26.6955 17.201 26.6322 17.3149C26.4766 17.5781 26.4766 17.5781 26.3789 17.6758C26.3704 17.8212 26.3685 17.9669 26.3694 18.1126C26.3697 18.2004 26.37 18.2882 26.3703 18.3786C26.3711 18.471 26.372 18.5633 26.3728 18.6584C26.3732 18.7512 26.3737 18.8439 26.3741 18.9394C26.3753 19.1692 26.377 19.3991 26.3789 19.6289C26.6367 19.5 26.8945 19.3711 27.1602 19.2383C26.9724 19.6137 26.7515 19.9234 26.4949 20.2515C26.4533 20.3053 26.4117 20.3592 26.3688 20.4147C26.0869 20.778 25.796 21.1326 25.5 21.4844C24.4728 21.0274 23.7424 20.074 23.1562 19.1406C23.0999 19.0568 23.0435 18.9729 22.9854 18.8866C22.9451 18.8093 22.9048 18.732 22.8633 18.6523C22.8955 18.5557 22.9277 18.459 22.9609 18.3594C23.0217 18.4287 23.0217 18.4287 23.0838 18.4994C23.7116 19.1732 24.4805 19.7051 25.3047 20.1172C25.3369 19.5371 25.3691 18.957 25.4023 18.3594C25.2412 18.2949 25.0801 18.2305 24.9141 18.1641C24.311 17.4996 23.7163 16.5342 23.6445 15.625C23.7136 15.696 23.7828 15.767 23.854 15.8401C24.1218 16.1025 24.3975 16.3407 24.6882 16.5771C24.7813 16.6532 24.8743 16.7292 24.9701 16.8076C25.191 16.9922 25.191 16.9922 25.4023 17.0898C25.4023 16.4775 25.4023 15.8652 25.4023 15.2344C25.2734 15.2021 25.1445 15.1699 25.0117 15.1367C24.3453 14.4999 23.778 13.5166 23.6445 12.5977C23.9363 12.8351 24.2117 13.0667 24.4746 13.3362C24.7555 13.6246 24.7555 13.6246 25.3047 13.9648C25.3369 13.0625 25.3691 12.1602 25.4023 11.2305Z" fill="#367119"/>
<path d="M10.6562 29.8828C11.0322 30.0289 11.1805 30.2397 11.407 30.5664C11.7332 30.9848 11.9408 31.169 12.4675 31.2344C12.5861 31.2421 12.5861 31.2421 12.707 31.25C12.8042 31.2602 12.9014 31.2704 13.0015 31.2809C13.2613 31.3072 13.5208 31.3292 13.7812 31.3477C13.5105 31.6485 13.2868 31.8054 12.9023 31.9336C12.9778 32.3342 13.1217 32.522 13.4311 32.7805C13.9813 33.063 14.6377 33.0631 15.2461 33.1055C15.1606 33.5701 15.1606 33.5701 15.0508 33.783C14.9394 33.9881 14.9394 33.9881 14.91 34.2514C14.8544 34.5765 14.7677 34.8732 14.6663 35.1868C14.5061 35.6946 14.3756 36.1971 14.2695 36.7188C13.8211 36.5794 13.5359 36.3271 13.2136 35.9985C13.1628 35.9473 13.112 35.8961 13.0596 35.8433C11.8281 34.5665 11.8281 34.5665 11.8281 34.082C12.0845 34.0332 12.0845 34.0332 12.4141 34.082C12.6453 34.3196 12.8237 34.5833 13 34.8633C13.0141 34.7364 13.0282 34.6095 13.0427 34.4788C13.0854 34.0942 13.0854 34.0942 13.1953 33.9844C13.0966 33.9501 12.9979 33.9159 12.8962 33.8806C12.4644 33.6952 12.0868 33.4035 11.8281 33.0078C11.843 32.8014 11.843 32.8014 11.9258 32.6172C12.176 32.4463 12.176 32.4463 12.4141 32.3242C12.305 32.1925 12.305 32.1925 12.0242 32.2224C11.4146 32.1997 10.9531 32.1819 10.5155 31.7211C9.77734 30.8268 9.77734 30.8268 9.77734 30.4688C9.9696 30.3215 9.9696 30.3215 10.2168 30.1636C10.2984 30.111 10.3799 30.0583 10.464 30.0041C10.5274 29.9641 10.5909 29.9241 10.6562 29.8828Z" fill="#336C19"/>
<path d="M26.5 42C26.5 44.97 26.5 47.94 26.5 51C26.1778 51 25.8555 51 25.5235 51C25.5191 49.9455 25.5155 48.8909 25.5134 47.8364C25.5123 47.3467 25.511 46.8571 25.5088 46.3674C25.5066 45.895 25.5055 45.4226 25.505 44.9501C25.5046 44.7698 25.5039 44.5894 25.5028 44.4091C25.5014 44.1567 25.5012 43.9044 25.5013 43.652C25.5009 43.5082 25.5004 43.3645 25.5 43.2164C25.5235 42.863 25.5235 42.863 25.6117 42.6378C25.7604 42.4369 25.9126 42.3359 26.085 42.2235C26.1809 42.1598 26.1809 42.1598 26.2788 42.0949C26.4349 42 26.4349 42 26.5 42Z" fill="#49A21F"/>
<path d="M13.9766 38.2812C14.0732 38.2812 14.1699 38.2812 14.2695 38.2812C14.2695 38.3779 14.2695 38.4746 14.2695 38.5742C14.3685 38.5607 14.3685 38.5607 14.4695 38.5468C15.1331 38.4693 15.6886 38.5065 16.3386 38.6475C17.9432 38.9666 19.5687 39.1744 21.2031 39.2578C20.1684 40.5578 20.1684 40.5578 19.4648 40.6677C19.1951 40.6677 19.1951 40.6677 18.7617 40.625C18.8584 40.335 18.9551 40.0449 19.0547 39.7461C18.9046 39.8273 18.9046 39.8273 18.7514 39.9101C18.6185 39.9816 18.4857 40.0531 18.3528 40.1245C18.287 40.1601 18.2212 40.1958 18.1535 40.2325C17.5958 40.5317 17.1643 40.7528 16.5156 40.7227C16.5801 40.4648 16.6445 40.207 16.7109 39.9414C16.6459 39.9837 16.5808 40.026 16.5137 40.0696C15.8391 40.4772 15.3471 40.6093 14.5625 40.5273C14.627 40.2695 14.6914 40.0117 14.7578 39.7461C14.6652 39.7944 14.5725 39.8428 14.4771 39.8926C14.1719 40.0391 14.1719 40.0391 13.9766 40.0391C13.9766 39.459 13.9766 38.8789 13.9766 38.2812Z" fill="#49A21F"/>
<path d="M15.6367 37.5C16.3094 37.5522 16.9519 37.6564 17.6082 37.8113C17.6995 37.8324 17.7909 37.8535 17.885 37.8753C18.6739 38.0601 19.4581 38.2622 20.2409 38.4711C20.7872 38.6167 21.334 38.7483 21.8867 38.8672C21.9189 38.6094 21.9512 38.3516 21.9844 38.0859C22.2002 38.1478 22.415 38.212 22.6294 38.2786C22.8834 38.3554 23.1369 38.4261 23.3931 38.4945C24.2506 38.7362 24.8479 38.9144 25.3146 39.7293C25.4023 39.9414 25.4023 39.9414 25.4023 40.1367C25.2275 40.2022 25.0525 40.2672 24.8774 40.332C24.78 40.3683 24.6826 40.4045 24.5822 40.4419C24.3281 40.5273 24.3281 40.5273 24.1328 40.5273C24.1006 40.7529 24.0684 40.9785 24.0352 41.2109C23.9868 41.0176 23.9868 41.0176 23.9375 40.8203C23.8328 40.8546 23.728 40.8888 23.6201 40.9241C23.1638 41.0382 23.1638 41.0382 22.8633 40.918C23.2017 40.8696 23.2017 40.8696 23.5469 40.8203C23.3535 40.5625 23.1602 40.3047 22.9609 40.0391C23.3477 39.894 23.3477 39.894 23.7422 39.7461C23.1693 39.4435 22.6527 39.3318 22.0088 39.3188C21.0398 39.2914 20.1619 39.0283 19.2377 38.7534C18.9541 38.671 18.6695 38.5946 18.3837 38.5201C17.4363 38.2725 16.5236 38.0205 15.6367 37.5977C15.6367 37.5654 15.6367 37.5332 15.6367 37.5Z" fill="#356F19"/>
<path d="M8.50781 25.9747C8.53601 26.0693 8.56421 26.164 8.59326 26.2615C8.77189 26.5874 8.77189 26.5874 9.10176 26.6426C9.42449 26.6905 9.7452 26.729 10.0703 26.7559C10.0703 26.8204 10.0703 26.8848 10.0703 26.9512C9.84473 27.0801 9.61914 27.209 9.38672 27.3418C9.4804 27.9416 9.69909 28.4108 10.168 28.8067C10.6689 28.9778 11.2056 28.9881 11.7305 29.002C11.4507 29.2961 11.2395 29.4586 10.8516 29.5879C10.8516 29.6524 10.8516 29.7168 10.8516 29.7832C10.6339 29.7885 10.4162 29.7923 10.1985 29.7955C10.0773 29.7977 9.95603 29.8 9.83113 29.8023C9.48653 29.7834 9.29047 29.7644 8.99609 29.5879C8.83055 29.3801 8.69722 29.1911 8.56274 28.9654C8.52605 28.909 8.48935 28.8526 8.45155 28.7945C8.20004 28.3827 8.20004 28.3827 8.26634 28.0949C8.42864 27.9063 8.57118 27.8243 8.80078 27.7325C8.73708 27.7308 8.67339 27.7292 8.60776 27.7275C8.31505 27.6986 8.09401 27.6572 7.82422 27.5372C7.54349 27.1846 7.23828 26.7323 7.23828 26.2676C7.39445 26.1994 7.55123 26.1325 7.70825 26.0662C7.79549 26.0288 7.88273 25.9914 7.97261 25.9529C8.21484 25.877 8.21484 25.877 8.50781 25.9747Z" fill="#316718"/>
<path d="M4.60156 17.3828C5.18164 17.5278 5.18164 17.5278 5.77344 17.6758C5.87012 18.1914 5.9668 18.707 6.06641 19.2383C6.32422 19.2383 6.58203 19.2383 6.84766 19.2383C6.72983 19.3259 6.72983 19.3259 6.60962 19.4153C6.33757 19.6103 6.33757 19.6103 6.26172 19.9219C6.31417 20.1821 6.31417 20.1821 6.4021 20.459C6.49102 20.7557 6.55469 20.9783 6.55469 21.2891C6.65533 21.3068 6.65533 21.3068 6.75801 21.3249C6.846 21.3413 6.934 21.3577 7.02466 21.3745C7.15552 21.3983 7.15552 21.3983 7.28902 21.4226C7.53125 21.4844 7.53125 21.4844 7.82422 21.6797C7.69833 21.7453 7.57213 21.8103 7.4458 21.875C7.37556 21.9113 7.30531 21.9475 7.23294 21.9849C7.04297 22.0703 7.04297 22.0703 6.84766 22.0703C6.87988 22.167 6.91211 22.2637 6.94531 22.3633C6.79066 22.3494 6.63604 22.3351 6.48145 22.3206C6.39534 22.3126 6.30923 22.3047 6.22052 22.2965C5.99868 22.2693 5.79311 22.2277 5.57812 22.168C5.50962 21.9507 5.44281 21.7329 5.37671 21.5149C5.33932 21.3937 5.30193 21.2724 5.26341 21.1475C5.17368 20.7377 5.19711 20.4886 5.38281 20.1172C5.32091 20.0948 5.259 20.0723 5.19522 20.0492C4.99219 19.9219 4.99219 19.9219 4.91198 19.7087C4.8905 19.5789 4.8905 19.5789 4.86859 19.4466C4.85223 19.352 4.83586 19.2575 4.819 19.1601C4.80364 19.061 4.78828 18.9619 4.77246 18.8599C4.75559 18.7615 4.73872 18.6632 4.72134 18.5619C4.65426 18.161 4.60156 17.7905 4.60156 17.3828Z" fill="#326818"/>
<path d="M46.3984 17.2852C46.2939 18.1854 46.1545 19.0471 45.9102 19.9219C45.7168 19.9541 45.5234 19.9863 45.3242 20.0195C45.4854 20.1484 45.6465 20.2773 45.8125 20.4102C45.5618 21.8432 45.5618 21.8432 45.2392 22.1416C45.0323 22.2187 44.8607 22.2539 44.6406 22.2656C44.5439 22.2717 44.4473 22.2777 44.3477 22.2839C44.251 22.2749 44.251 22.2749 44.1523 22.2656C44.1523 22.2012 44.1523 22.1367 44.1523 22.0703C44.0637 22.0441 43.9751 22.0179 43.8838 21.991C43.5912 21.8841 43.4159 21.7726 43.1758 21.582C43.3323 21.5327 43.489 21.484 43.6458 21.4355C43.733 21.4084 43.8202 21.3812 43.9101 21.3531C44.1523 21.2891 44.1523 21.2891 44.4453 21.2891C44.4943 21.0485 44.5425 20.808 44.5887 20.5669C44.6284 20.3725 44.6781 20.18 44.7322 19.989C44.768 19.6986 44.768 19.6986 44.5002 19.4458C44.4177 19.3773 44.3351 19.3088 44.25 19.2383C44.4756 19.2383 44.7012 19.2383 44.9336 19.2383C45.0303 18.6582 45.127 18.0781 45.2266 17.4805C46.0078 17.2852 46.0078 17.2852 46.3984 17.2852Z" fill="#4AA41F"/>
<path d="M18.8593 18.8477C19.246 18.8799 19.6327 18.9121 20.0312 18.9453C20.0176 19.0927 20.004 19.2401 19.99 19.392C19.8797 20.6764 19.8797 20.6764 20.4312 21.7843C20.6783 22.0258 20.9337 22.2443 21.203 22.4609C21.3349 22.5895 21.4658 22.719 21.5937 22.8516C20.8903 22.8965 20.3184 22.8024 19.7683 22.3354C19.521 22.091 19.2836 21.8437 19.0546 21.582C18.9975 21.5264 18.9403 21.4707 18.8814 21.4134C18.685 21.0494 18.7274 20.6758 18.7372 20.2698C18.738 20.1458 18.738 20.1458 18.7388 20.0193C18.7439 19.6059 18.7771 19.2586 18.8593 18.8477Z" fill="#336918"/>
<path d="M29.0156 38.0859C29.064 38.5693 29.064 38.5693 29.1133 39.0625C28.9875 39.1037 28.8618 39.1448 28.7322 39.1872C28.5683 39.2413 28.4044 39.2953 28.2405 39.3494C28.1575 39.3765 28.0744 39.4036 27.9889 39.4316C27.9099 39.4577 27.8309 39.4838 27.7495 39.5107C27.6764 39.5348 27.6033 39.5588 27.5279 39.5836C27.3556 39.6348 27.3556 39.6348 27.2578 39.7461C27.5479 39.8105 27.8379 39.875 28.1367 39.9414C28.0028 40.3431 27.7973 40.4844 27.4531 40.7227C27.0342 40.6855 26.6433 40.5191 26.2507 40.3748C26.1877 40.3519 26.1247 40.3291 26.0598 40.3055C25.9056 40.2496 25.7516 40.1932 25.5977 40.1367C25.7853 39.5739 26.0085 39.1064 26.5449 38.8279C26.865 38.7009 27.1868 38.5894 27.5142 38.4827C27.6259 38.4438 27.7377 38.405 27.8529 38.365C28.6694 38.0859 28.6694 38.0859 29.0156 38.0859Z" fill="#3F881D"/>
<path d="M19.4463 15.5273C19.8008 15.5918 20.1553 15.6563 20.5205 15.7227C20.5064 15.8475 20.4923 15.9724 20.4778 16.1011C20.4699 16.1813 20.4619 16.2615 20.4538 16.3441C20.4229 16.6016 20.4229 16.6016 20.3706 16.8499C20.2803 17.3381 20.2803 17.3381 20.4507 17.7895C20.6277 17.991 20.8145 18.1746 21.0088 18.3594C21.1222 18.4883 21.2342 18.6184 21.3445 18.75C21.4271 18.8467 21.5096 18.9434 21.5947 19.043C20.987 19.0501 20.4708 19.0534 19.9956 18.6401C19.8755 18.516 19.7574 18.3899 19.6416 18.2617C19.5818 18.208 19.522 18.1542 19.4604 18.0988C19.2183 17.8655 19.0687 17.6965 19.0312 17.3557C19.0787 16.7306 19.2698 16.126 19.4463 15.5273Z" fill="#336A18"/>
<path d="M25.2046 3.02734C25.5225 3.06141 25.597 3.12708 25.8149 3.37524C25.8713 3.4538 25.9277 3.53235 25.9858 3.61328C25.8106 4.12337 25.5128 4.53435 25.2059 4.97227C24.9759 5.3026 24.9759 5.3026 24.9185 5.68962C25.062 5.95797 25.2758 6.143 25.4975 6.34766C24.8739 6.38746 24.2842 6.28972 23.7565 5.93452C23.6421 5.76172 23.6421 5.76172 23.6367 5.50613C23.7818 5.04072 24.0364 4.6824 24.3134 4.28467C24.3664 4.20675 24.4194 4.12882 24.474 4.04854C24.7104 3.70235 24.9514 3.36155 25.2046 3.02734Z" fill="#367319"/>
<path d="M23.6934 6.23076C23.8097 6.22868 23.8097 6.22868 23.9283 6.22656C24.1328 6.24907 24.1328 6.24907 24.3281 6.44438C24.0703 6.96001 23.8125 7.47563 23.5469 8.00688C23.8369 8.3936 24.127 8.78032 24.4258 9.17876C24.2305 9.27641 24.2305 9.27641 24.0191 9.22186C23.9002 9.17938 23.9002 9.17938 23.7788 9.13603C23.6591 9.09392 23.6591 9.09392 23.537 9.05096C23.4758 9.02868 23.4146 9.0064 23.3516 8.98344C23.3193 9.0479 23.2871 9.11235 23.2539 9.17876C22.4945 8.46278 22.4945 8.46278 22.2773 8.00688C22.3079 7.73833 22.3079 7.73833 22.4727 7.42094C22.5184 7.33119 22.564 7.24143 22.6111 7.14896C23.0884 6.23567 23.0884 6.23567 23.6934 6.23076Z" fill="#346E19"/>
<path d="M17.7845 29.6875C17.9807 29.9325 18.1767 30.1777 18.3712 30.4241C18.7405 30.8854 19.1148 31.3178 19.5423 31.7261C20.2262 32.394 20.8216 33.202 21.2025 34.082C21.1541 34.1787 21.1541 34.1787 21.1048 34.2773C20.5829 33.7827 20.0653 33.2838 19.5503 32.7819C19.3747 32.6116 19.1981 32.4424 19.0206 32.2741C18.7654 32.032 18.5139 31.7866 18.2629 31.5403C18.1828 31.4658 18.1028 31.3913 18.0203 31.3145C17.4952 30.79 17.4952 30.79 17.4844 30.4175C17.5981 29.874 17.5981 29.874 17.7845 29.6875Z" fill="#49A21F"/>
<path d="M20.1306 13.0859C20.5023 13.1515 20.8485 13.2546 21.2048 13.3789C21.1895 13.4367 21.1743 13.4945 21.1586 13.554C21.1396 13.6312 21.1206 13.7083 21.101 13.7878C21.0817 13.8638 21.0625 13.9397 21.0426 14.0179C21.0035 14.3012 21.0164 14.4739 21.1071 14.7461C21.3072 15.0142 21.3072 15.0142 21.5527 15.2649C21.6334 15.3511 21.7141 15.4374 21.7972 15.5262C21.8595 15.591 21.9218 15.6559 21.986 15.7227C21.5741 15.8599 21.2322 15.836 20.8141 15.7227C20.5484 15.5595 20.3438 15.3627 20.1306 15.1367C20.05 15.0602 19.9694 14.9836 19.8864 14.9048C19.6792 14.5422 19.7357 14.2541 19.8376 13.8672C19.9248 13.6006 20.0238 13.3458 20.1306 13.0859Z" fill="#336B18"/>
<path d="M12.1211 36.4258C12.3853 36.5726 12.5828 36.684 12.7681 36.9263C13.1484 37.2266 13.6024 37.1908 14.0742 37.207C14.1945 37.5678 14.1371 37.813 14.0742 38.1836C13.902 38.1624 13.902 38.1624 13.7263 38.1409C13.6549 38.1324 13.5836 38.124 13.51 38.1153C13.3184 38.0894 13.1284 38.0519 12.939 38.0127C12.5442 37.9835 12.3606 38.0852 12.0234 38.2812C11.959 38.2812 11.8945 38.2812 11.8281 38.2812C11.8604 38.0879 11.8926 37.8945 11.9258 37.6953C11.8223 37.6623 11.7188 37.6293 11.6122 37.5954C11.4767 37.5514 11.3411 37.5074 11.2056 37.4634C11.1373 37.4417 11.0691 37.4201 10.9988 37.3978C10.4831 37.2292 10.4831 37.2292 10.2656 37.0117C10.8938 36.9999 11.4978 37.029 12.1211 37.1094C12.1211 36.8838 12.1211 36.6582 12.1211 36.4258Z" fill="#367119"/>
<path d="M22.3872 8.97806C22.5205 9.00658 22.5205 9.00658 22.6565 9.03566C22.7248 9.0509 22.793 9.06613 22.8633 9.08182C22.8401 9.13986 22.817 9.19789 22.7931 9.25768C22.7047 9.54188 22.6592 9.75946 22.668 10.0584C22.8407 10.3735 23.0391 10.6297 23.2715 10.9033C23.4492 11.1326 23.4492 11.1326 23.4492 11.4256C22.9609 11.3279 22.9609 11.3279 22.4727 11.2303C22.3858 11.2198 22.2989 11.2094 22.2094 11.1986C21.9844 11.1326 21.9844 11.1326 21.8581 10.9625C21.8293 10.8937 21.8005 10.825 21.7708 10.7542C21.6592 10.497 21.5561 10.2949 21.3984 10.0584C21.4271 9.6638 21.4723 9.31925 21.6914 8.98417C21.9572 8.85126 22.0999 8.91545 22.3872 8.97806Z" fill="#377319"/>
<path d="M20.8125 11.0352C20.9529 11.049 21.0933 11.0633 21.2336 11.0779C21.3118 11.0858 21.39 11.0937 21.4705 11.1019C21.6914 11.1328 21.6914 11.1328 21.9844 11.2305C21.9479 11.3035 21.9479 11.3035 21.9108 11.3781C21.8114 11.6454 21.7738 11.822 21.7891 12.1094C22.0366 12.5713 22.3395 12.9718 22.668 13.3789C22.2836 13.507 22.0735 13.3924 21.6914 13.2812C21.627 13.3135 21.5625 13.3457 21.4961 13.3789C20.7404 12.6664 20.7404 12.6664 20.5195 12.207C20.527 11.7749 20.6345 11.4268 20.8125 11.0352Z" fill="#336B18"/>
<path d="M7.72656 24.3145C7.75149 24.3774 7.77641 24.4404 7.80209 24.5052C7.91205 24.7373 7.91205 24.7373 8.21866 24.8074C8.33422 24.83 8.44978 24.8527 8.56885 24.876C8.68491 24.8997 8.80098 24.9234 8.92056 24.9477C9.05463 24.9727 9.05463 24.9727 9.19141 24.9981C8.92668 25.2883 8.69028 25.3772 8.3125 25.4864C8.3125 25.5831 8.3125 25.6797 8.3125 25.7793C7.80634 25.9517 7.32034 25.802 6.84766 25.584C6.6019 25.2897 6.55469 24.9883 6.55469 24.6075C6.69451 24.5392 6.83503 24.4723 6.97583 24.4061C7.09309 24.35 7.09309 24.35 7.21272 24.2928C7.43359 24.2168 7.43359 24.2168 7.72656 24.3145Z" fill="#316518"/>
<path d="M7.04297 22.4609C7.06298 22.5381 7.083 22.6153 7.10362 22.6948C7.21624 22.9749 7.21624 22.9749 7.51027 23.0541C7.61589 23.0739 7.7215 23.0937 7.83032 23.114C8.02465 23.1517 8.21834 23.1933 8.41016 23.2422C8.44238 23.3066 8.47461 23.3711 8.50781 23.4375C8.4455 23.4623 8.38319 23.4871 8.31898 23.5126C8.23829 23.5463 8.1576 23.5799 8.07446 23.6145C7.99402 23.6474 7.91358 23.6802 7.8307 23.7141C7.59632 23.8168 7.59632 23.8168 7.53125 24.1211C6.43959 24.0307 6.43959 24.0307 6.16406 23.8281C6.03361 23.5096 5.94717 23.1868 5.87109 22.8516C6.01116 22.7858 6.15162 22.7208 6.29224 22.6562C6.37041 22.62 6.44859 22.5837 6.52913 22.5464C6.75 22.4609 6.75 22.4609 7.04297 22.4609Z" fill="#316618"/>
<path d="M44.0547 22.2656C44.2159 22.3233 44.3765 22.3826 44.5369 22.4426C44.6711 22.4919 44.6711 22.4919 44.8081 22.5422C45.0312 22.6562 45.0312 22.6562 45.1289 22.9492C45.0787 23.234 44.9836 23.4819 44.8359 23.7305C44.4238 23.9553 44.0285 23.9788 43.5664 23.9258C43.1979 23.7829 42.8447 23.616 42.4922 23.4375C42.5244 23.373 42.5566 23.3086 42.5898 23.2422C42.7779 23.1804 42.7779 23.1804 43.011 23.1323C43.0871 23.116 43.1633 23.0996 43.2418 23.0827C43.4688 23.0469 43.4688 23.0469 43.8594 23.0469C43.9238 22.7891 43.9883 22.5312 44.0547 22.2656Z" fill="#49A41F"/>
<path d="M21.8867 20.8008C22.0227 20.9186 22.0227 20.9186 22.1614 21.0388C23.1835 21.9346 23.1835 21.9346 24.3281 22.6562C24.1223 23.2419 24.1223 23.2419 23.8398 23.4375C23.3062 23.3749 22.9994 22.9449 22.668 22.5586C22.2524 22.0021 21.9025 21.5093 21.8867 20.8008Z" fill="#367219"/>
<path d="M33.5508 30C33.583 30 33.6152 30 33.6484 30C33.8853 30.8221 33.8853 30.8221 33.7461 31.2695C33.584 31.4647 33.4271 31.6342 33.2452 31.8085C33.1955 31.8577 33.1458 31.9069 33.0946 31.9575C32.9363 32.1137 32.7766 32.2684 32.6169 32.4231C32.5091 32.529 32.4013 32.635 32.2936 32.7411C32.0301 33.0003 31.7654 33.2583 31.5 33.5156C31.5 33.1341 31.6718 32.9156 31.8723 32.6062C32.0721 32.2929 32.2643 31.9875 32.4285 31.6541C32.5841 31.3478 32.7656 31.0869 32.9709 30.8118C33.17 30.5438 33.3656 30.2778 33.5508 30Z" fill="#55C323"/>
<path d="M25.7917 37.207C25.824 37.207 25.8562 37.207 25.8894 37.207C25.9099 37.8223 25.8479 38.3781 25.7368 38.9832C25.7004 39.217 25.6862 39.4252 25.6941 39.6606C25.6941 39.7533 25.6941 39.8459 25.6941 39.9414C25.6296 40.0059 25.5652 40.0703 25.4988 40.1367C25.3644 39.988 25.2327 39.837 25.102 39.6851C25.0284 39.6012 24.9547 39.5174 24.8789 39.431C24.7175 39.1602 24.7175 39.1602 24.7251 38.8622C24.815 38.5746 24.9166 38.3738 25.0898 38.1287C25.1422 38.0541 25.1946 37.9796 25.2485 37.9028C25.4235 37.6649 25.5977 37.4298 25.7917 37.207Z" fill="#4BA820"/>
<path d="M21.2031 39.3555C21.82 39.3948 22.2432 39.6203 22.7656 39.9414C22.5123 40.1103 22.3778 40.1771 22.0942 40.2466C21.9979 40.2711 21.9979 40.2711 21.8997 40.2962C21.6914 40.332 21.6914 40.332 21.2031 40.332C21.2031 40.0098 21.2031 39.6875 21.2031 39.3555Z" fill="#48A01F"/>
<path d="M24.6211 38.9648C24.939 39.2601 25.1767 39.5708 25.4023 39.9414C25.4023 40.0059 25.4023 40.0703 25.4023 40.1367C25.0156 40.2656 24.6289 40.3945 24.2305 40.5273C24.3319 39.9914 24.432 39.478 24.6211 38.9648Z" fill="#3F881C"/>
<path d="M25.3047 21.582C25.3369 21.582 25.3691 21.582 25.4023 21.582C25.4023 22.1299 25.4023 22.6777 25.4023 23.2422C24.7432 23.0225 24.7432 23.0225 24.4258 22.8516C24.5711 22.5332 24.7536 22.2723 24.969 21.9971C25.0295 21.919 25.0901 21.841 25.1525 21.7606C25.2278 21.6722 25.2278 21.6722 25.3047 21.582Z" fill="#49A11F"/>
<path d="M25.3047 37.793C25.3369 37.793 25.3691 37.793 25.4023 37.793C25.4023 38.4697 25.4023 39.1465 25.4023 39.8438C25.1745 39.6159 24.9466 39.388 24.7188 39.1602C24.7316 38.6212 24.9887 38.2136 25.3047 37.793Z" fill="#56C423"/>
<path d="M20.3218 25.8789C20.7085 25.9111 21.0952 25.9434 21.4937 25.9766C20.9182 26.6828 20.9182 26.6828 20.5171 26.8555C20.2903 26.487 20.3218 26.366 20.3218 25.8789Z" fill="#3E861C"/>
<path d="M4.69922 17.2852C6.8953 17.6258 6.8953 17.6258 7.23828 17.9688C7.28268 18.228 7.30688 18.4885 7.33594 18.75C7.23926 18.7983 7.23926 18.7983 7.14062 18.8477C7.14062 18.5898 7.14062 18.332 7.14062 18.0664C6.99863 18.0513 6.99863 18.0513 6.85376 18.0359C6.48702 17.9842 6.15662 17.8729 5.80815 17.7505C5.44474 17.6324 5.07351 17.5557 4.69922 17.4805C4.69922 17.416 4.69922 17.3516 4.69922 17.2852Z" fill="#4EB31F"/>
<path d="M7.62891 18.1641C8.19935 18.239 8.77237 18.4032 9.28906 18.6523C9.38672 18.8721 9.38672 18.8721 9.38672 19.1406C9.38873 19.2635 9.39075 19.3864 9.39282 19.5129C9.39081 19.6157 9.38879 19.7184 9.38672 19.8242C9.45117 19.8242 9.51562 19.8242 9.58203 19.8242C9.5498 19.9209 9.51758 20.0176 9.48438 20.1172C9.41992 20.1172 9.35547 20.1172 9.28906 20.1172C9.24072 19.4888 9.24072 19.4888 9.19141 18.8477C8.4229 18.5926 8.4229 18.5926 7.62891 18.457C7.53223 18.5215 7.43555 18.5859 7.33594 18.6523C7.51904 18.2739 7.51904 18.2739 7.62891 18.1641Z" fill="#52C321"/>
<path d="M15.0508 21.875C15.2863 21.9977 15.5088 22.1262 15.7344 22.2656C15.8056 22.3052 15.8769 22.3447 15.9503 22.3854C16.2577 22.5929 16.4747 22.7672 16.5592 23.1428C16.62 23.6311 16.6221 24.118 16.6133 24.6094C16.5488 24.6094 16.4844 24.6094 16.418 24.6094C16.4245 24.5068 16.4311 24.4042 16.4378 24.2985C16.4745 23.556 16.4745 23.556 16.2038 22.8898C15.8883 22.593 15.523 22.3834 15.1484 22.168C15.084 22.1035 15.0195 22.0391 14.9531 21.9727C14.9854 21.9404 15.0176 21.9082 15.0508 21.875Z" fill="#4AAA1C"/>
<path d="M31.3594 15.332C31.6255 15.5982 31.6467 15.8844 31.7134 16.2415C31.7265 16.3063 31.7396 16.3712 31.7531 16.4381C31.8213 16.79 31.8629 17.122 31.8477 17.4805C31.6217 17.1415 31.5654 16.8291 31.4937 16.4368C31.4806 16.3682 31.4675 16.2997 31.454 16.2291C31.4218 16.0604 31.3905 15.8915 31.3594 15.7227C30.9727 15.7227 30.5859 15.7227 30.1875 15.7227C30.4199 15.4903 30.5531 15.47 30.8711 15.4053C30.9577 15.3866 31.0443 15.368 31.1335 15.3488C31.2081 15.3433 31.2826 15.3377 31.3594 15.332Z" fill="#53C121"/>
<path d="M21.4961 34.668C21.9038 35.0098 22.3081 35.3496 22.668 35.7422C22.668 35.8066 22.668 35.8711 22.668 35.9375C21.7733 35.6052 21.7733 35.6052 21.5632 35.2051C21.4961 34.9609 21.4961 34.9609 21.4961 34.668Z" fill="#37741A"/>
<path d="M11.6328 19.8242C12.0103 19.9358 12.3226 20.0363 12.6094 20.3125C12.7685 20.6706 12.7134 21.1005 12.707 21.4844C12.7715 21.5166 12.8359 21.5488 12.9023 21.582C12.8379 21.6465 12.7734 21.7109 12.707 21.7773C12.674 21.6228 12.6416 21.4682 12.6094 21.3135C12.5912 21.2274 12.5731 21.1413 12.5544 21.0526C12.5117 20.8008 12.5117 20.8008 12.5117 20.4102C12.1139 20.2112 11.8682 20.2123 11.4375 20.3125C11.502 20.1514 11.5664 19.9902 11.6328 19.8242Z" fill="#52B922"/>
<path d="M30.0898 10.839C30.1764 11.0091 30.1764 11.0091 30.2546 11.2174C30.2812 11.2856 30.3078 11.3539 30.3351 11.4242C30.3828 11.6202 30.3828 11.6202 30.2852 11.9132C30.1401 11.4782 30.1401 11.4782 29.9922 11.0343C29.2671 11.1793 29.2671 11.1793 28.5273 11.3273C28.625 11.132 28.625 11.132 28.9054 11.024C29.0203 10.9891 29.1352 10.9543 29.2537 10.9183C29.3683 10.8827 29.483 10.8471 29.6012 10.8104C29.8945 10.7413 29.8945 10.7413 30.0898 10.839Z" fill="#4FC422"/>
<path d="M30.6758 12.8906C30.9216 13.1364 30.9795 13.3375 31.0664 13.6719C31.0342 13.8008 31.002 13.9297 30.9688 14.0625C30.8721 13.8047 30.7754 13.5469 30.6758 13.2812C29.988 13.3519 29.988 13.3519 29.3086 13.4766C29.5538 13.1778 29.7872 13.1102 30.157 13.0188C30.254 12.9943 30.3511 12.9697 30.4511 12.9444C30.5252 12.9267 30.5994 12.9089 30.6758 12.8906Z" fill="#55C222"/>
<path d="M4.73584 34.948C4.78821 34.9842 4.84058 35.0205 4.89453 35.0579C4.8623 35.1545 4.83008 35.2512 4.79688 35.3508C4.73242 35.2864 4.66797 35.2219 4.60156 35.1555C4.16302 35.1868 3.74133 35.3327 3.34424 35.5156C3.03906 35.6438 3.03906 35.6438 2.74609 35.5461C2.92909 35.4686 3.11222 35.3913 3.29541 35.3142C3.44836 35.2496 3.44836 35.2496 3.6044 35.1837C4.45206 34.8434 4.45206 34.8434 4.73584 34.948Z" fill="#4AA71E"/>
<path d="M31.9453 23.8281C31.9775 23.9248 32.0098 24.0215 32.043 24.1211C31.8562 24.327 31.669 24.5324 31.4814 24.7375C31.4288 24.7956 31.3762 24.8537 31.322 24.9136C31.0585 25.2012 30.8064 25.4645 30.4805 25.6836C30.641 25.2869 30.9229 25.0063 31.2129 24.7009C31.4777 24.4201 31.7303 24.1506 31.9453 23.8281Z" fill="#55C224"/>
<path d="M10.1008 33.8359C10.3726 33.8394 10.5097 33.8462 10.7249 34.016C10.8577 34.1777 10.8577 34.1777 11.0469 34.4707C11.0146 34.5352 10.9824 34.5996 10.9492 34.666C10.8888 34.5875 10.8284 34.5089 10.7661 34.428C10.4127 34.0653 9.9653 34.0904 9.48438 34.0801C9.71471 33.8497 9.7848 33.8487 10.1008 33.8359Z" fill="#54BF21"/>
<path d="M7.82422 34.3751C8.05005 34.6314 8.05005 34.6314 8.21484 34.8634C8.18262 34.9278 8.15039 34.9923 8.11719 35.0587C8.03662 34.962 7.95605 34.8653 7.87305 34.7657C7.68579 34.5749 7.58365 34.4823 7.31839 34.4338C7.08024 34.4331 7.08024 34.4331 6.75 34.4727C6.84766 34.2774 6.84766 34.2774 7.06738 34.2042C7.39163 34.1747 7.54106 34.2154 7.82422 34.3751Z" fill="#57C222"/>
<path d="M9.09375 34.0797C9.3623 34.3299 9.3623 34.3299 9.58203 34.568C9.5498 34.6646 9.51758 34.7613 9.48438 34.8609C9.40381 34.7663 9.32324 34.6716 9.24023 34.5741C8.88749 34.2154 8.60961 34.1943 8.11719 34.1773C8.11719 34.1451 8.11719 34.1129 8.11719 34.0797C8.78932 33.9422 8.78932 33.9422 9.09375 34.0797Z" fill="#52C222"/>
<path d="M20.9102 10.7422C21.1363 10.8023 21.362 10.8635 21.5876 10.9253C21.652 10.9423 21.7164 10.9593 21.7828 10.9768C21.9494 11.0229 22.1136 11.0774 22.2773 11.1328C22.3096 11.1973 22.3418 11.2617 22.375 11.3281C21.8735 11.2654 21.399 11.1638 20.9102 11.0352C20.9102 10.9385 20.9102 10.8418 20.9102 10.7422Z" fill="#48A81D"/>
<path d="M20.1289 12.8906C20.3184 12.9321 20.5076 12.9751 20.6965 13.0188C20.8546 13.0545 20.8546 13.0545 21.0158 13.0909C21.2954 13.1818 21.4135 13.2507 21.5938 13.4766C20.5627 13.2884 20.5627 13.2884 20.1289 13.0859C20.1289 13.0215 20.1289 12.957 20.1289 12.8906Z" fill="#48A31F"/>
<path d="M21.3984 9.86328C21.677 10.132 21.9203 10.4105 22.1553 10.7178C22.2152 10.7958 22.2751 10.8739 22.3369 10.9543C22.3817 11.0132 22.4265 11.0721 22.4727 11.1328C22.376 11.1812 22.376 11.1812 22.2773 11.2305C21.9844 11.1328 21.9844 11.1328 21.8772 10.9695C21.8461 10.9026 21.815 10.8356 21.783 10.7666C21.7501 10.6966 21.7172 10.6266 21.6834 10.5545C21.5825 10.3262 21.4861 10.097 21.3984 9.86328Z" fill="#16240C"/>
<path d="M17.6875 28.3203C17.7197 28.3203 17.752 28.3203 17.7852 28.3203C17.7852 28.707 17.7852 29.0938 17.7852 29.4922C17.6885 29.3955 17.5918 29.2988 17.4922 29.1992C17.5148 28.8765 17.5421 28.6112 17.6875 28.3203Z" fill="#2F6017"/>
<path d="M13.1953 20.8008C13.6597 20.8571 13.9737 21.0499 14.3672 21.2891C14.3672 21.3535 14.3672 21.418 14.3672 21.4844C13.9465 21.3314 13.5799 21.1247 13.1953 20.8984C13.1953 20.8662 13.1953 20.834 13.1953 20.8008Z" fill="#51C321"/>
<path d="M19.1523 25.6836C19.1523 25.7803 19.1523 25.877 19.1523 25.9766C18.8301 26.041 18.5078 26.1055 18.1758 26.1719C18.4734 25.8742 18.7207 25.6836 19.1523 25.6836Z" fill="#14190C"/>
<path d="M25.3047 2.83203C25.4756 2.84424 25.4756 2.84424 25.6953 2.92969C25.9211 3.21045 25.9211 3.21045 26.0859 3.51562C26.0537 3.6123 26.0215 3.70898 25.9883 3.80859C25.9553 3.76038 25.9223 3.71217 25.8883 3.66249C25.8448 3.59993 25.8012 3.53736 25.7563 3.4729C25.7133 3.41059 25.6702 3.34827 25.6259 3.28407C25.5077 3.11158 25.5077 3.11158 25.3047 3.02734C25.3047 2.96289 25.3047 2.89844 25.3047 2.83203Z" fill="#43A31D"/>
<path d="M9.19141 18.8477C9.42866 19.2035 9.40252 19.4055 9.38672 19.8242C9.45117 19.8242 9.51562 19.8242 9.58203 19.8242C9.5498 19.9209 9.51758 20.0176 9.48438 20.1172C9.41992 20.1172 9.35547 20.1172 9.28906 20.1172C9.25684 19.6982 9.22461 19.2793 9.19141 18.8477Z" fill="#51B41E"/>
<path d="M4.71753 34.9544C4.80515 35.0058 4.80515 35.0058 4.89453 35.0582C4.8623 35.1549 4.83008 35.2516 4.79688 35.3512C4.73242 35.2867 4.66797 35.2223 4.60156 35.1559C4.30044 35.1396 4.30044 35.1396 4.01562 35.1559C4.2565 34.915 4.39098 34.8145 4.71753 34.9544Z" fill="#51C721"/>
<path d="M15.0508 21.875C15.7222 22.2412 15.7222 22.2412 15.832 22.4609C15.454 22.4049 15.2381 22.2181 14.9531 21.9727C14.9854 21.9404 15.0176 21.9082 15.0508 21.875Z" fill="#56C220"/>
<path d="M28.2843 36C28.3555 36.0433 28.4267 36.0866 28.5 36.1311C27.7945 37.6844 27.0873 39.2238 26.2604 40.687C25.915 41.3001 25.5895 41.928 25.2645 42.5574C25.3719 42.5954 25.3719 42.5954 25.4815 42.6342C25.5767 42.6684 25.6719 42.7025 25.7701 42.7377C25.9108 42.7879 25.9108 42.7879 26.0544 42.8391C26.3349 42.9477 26.6089 43.0802 26.8823 43.2131C26.8823 46.1128 26.8823 49.0125 26.8823 52C25.7789 52 24.6756 52 23.5389 52C23.5259 49.8556 23.5259 49.8556 23.5231 48.9424C23.5212 48.3189 23.5189 47.6955 23.5145 47.0721C23.511 46.5695 23.5091 46.067 23.5082 45.5644C23.5076 45.3726 23.5064 45.1807 23.5047 44.9889C23.5024 44.7204 23.502 44.452 23.5022 44.1835C23.5015 44.0306 23.5007 43.8777 23.5 43.7202C23.5389 43.3443 23.5389 43.3443 23.6899 43.1029C23.8855 42.9306 24.0666 42.8284 24.2939 42.7295C24.3673 42.6965 24.4407 42.6636 24.5163 42.6296C24.7253 42.5574 24.7253 42.5574 25.0488 42.5574C25.0033 42.4783 24.9579 42.3991 24.911 42.3176C24.8224 42.1604 24.8224 42.1604 24.732 42C24.6732 41.8965 24.6144 41.7931 24.5538 41.6865C24.4068 41.3874 24.3175 41.1981 24.2939 40.8525C24.8131 39.0415 26.164 37.6999 27.4215 36.6557C27.5531 36.5454 27.5531 36.5454 27.6873 36.4329C27.8807 36.2777 28.0818 36.1368 28.2843 36Z" fill="#56C523"/>
</g>
<defs>
<clipPath id="clip0_370_1589">
<rect width="50" height="50" fill="white" transform="translate(0.5)"/>
</clipPath>
</defs>
</svg>
