<svg width="25" height="24" viewBox="0 0 25 24" fill="none" xmlns="http://www.w3.org/2000/svg">
<g clip-path="url(#clip0_370_1954)">
<path d="M14.5 16C16.7091 16 18.5 14.2091 18.5 12C18.5 9.79086 16.7091 8 14.5 8C12.2909 8 10.5 9.79086 10.5 12C10.5 14.2091 12.2909 16 14.5 16Z" fill="#FCD707"/>
<path d="M15.5 4.069V2H13.5V4.069C11.7403 4.29368 10.105 5.09617 8.85057 6.35057C7.59617 7.60497 6.79368 9.2403 6.569 11H4.5V13H6.569C6.79335 14.7598 7.59574 16.3953 8.8502 17.6498C10.1047 18.9043 11.7402 19.7066 13.5 19.931V22H15.5V19.931C17.2599 19.7068 18.8955 18.9045 20.15 17.65C21.4045 16.3955 22.2068 14.7599 22.431 13H24.5V11H22.431C22.2066 9.24017 21.4043 7.60466 20.1498 6.3502C18.8953 5.09574 17.2598 4.29335 15.5 4.069ZM14.5 18C11.191 18 8.5 15.309 8.5 12C8.5 8.691 11.191 6 14.5 6C17.809 6 20.5 8.691 20.5 12C20.5 15.309 17.809 18 14.5 18Z" fill="#1B2F2B"/>
</g>
<defs>
<clipPath id="clip0_370_1954">
<rect width="24" height="24" fill="white" transform="translate(0.5)"/>
</clipPath>
</defs>
</svg>
